/* XPM */
static char *aeba3c92b703482b8549bc1ab8c003033GBJ2RjMxe5wQp1m[] = {
/* columns rows colors chars-per-pixel */
"20 13 7 1 ",
"  c None",
". c #071B1B",
"X c #5A2C83",
"o c #7C23BC",
"O c #9A44D7",
"+ c #AA63DE",
"@ c #BE86E7",
/* pixels */
"       XXXXXX       ",
"     XXO+@@@@XX     ",
"    XOO+@@@@@@+X    ",
"   XOO+@@@@@@@@+X   ",
"   XO+@@@@@@@@@+X   ",
"  XoO+@@@..@..@@+X  ",
"  XoO+@@@..@..@@+X  ",
"  XoO+@@@@@@@@@@+X  ",
"  XoO++@@@@@@@@@OX  ",
"   XoOO++@@@@@@OoX  ",
"    XooOO+++++ooX   ",
"       ooooooo      ",
"                    "
};
