/* XPM */
static char *fb65dca31a0a4f879daabfaf6a0051beXcZTpGm3nJWTad3T[] = {
/* columns rows colors chars-per-pixel */
"116 14 6 1 ",
"  c None",
". c #5A2C83",
"X c #7C23BC",
"o c #9A44D7",
"O c #AA63DE",
"+ c #BE86E7",
/* pixels */
"       ...                                                                                                          ",
"      .+++..                               .                                                                        ",
"       .+++O.                             .o.                           ...                                         ",
"       .++++O.                        .. .+++.                          .++.                                        ",
"    ...+..++O.                       .++..o++.                          .+o+.                                       ",
"   .XoO.++....                      .+++o...o.                     ....  ....                                       ",
"   .XoO.+++.+.                      .o+++....                      .+++.      ..                        ...         ",
"   .XoOO...+O.                       ..o..++.                       .o+.     .+.                        .++.        ",
"    ..oo.+.OO.                         . .+.                         ...    .+.                         .+o+.       ",
"      ..+OO..                             .                                 ..                     ....   +o. ..    ",
"      .OO..                                                                                       .++++.     .+.    ",
"       ..                                                                                           ooo+.   .+o.    ",
"                                                                                                                    ",
"                                                                                                                    "
};
