/* XPM */
static char *_86cfe4c736442db88fb3acd3376db3aZ4NSI6qFHjGx0ZtY[] = {
/* columns rows colors chars-per-pixel */
"64 64 250 2 ",
"   c #13313C",
".  c #2C3834",
"X  c #334233",
"o  c #444A30",
"O  c #0A3447",
"+  c #163949",
"@  c #093B59",
"#  c #163D53",
"$  c #253947",
"%  c #0D3D62",
"&  c #17445A",
"*  c #0E4259",
"=  c #314C4D",
"-  c #0A4362",
";  c #084666",
":  c #154C6B",
">  c #184968",
",  c #16506C",
"<  c #144D72",
"1  c #1A5778",
"2  c #245269",
"3  c #235D7D",
"4  c #2B5E7D",
"5  c #295C75",
"6  c #2F5368",
"7  c #2A627E",
"8  c #28667F",
"9  c #36637A",
"0  c #1F607C",
"q  c #464F4F",
"w  c #4F6D54",
"e  c #6E7451",
"r  c #485965",
"t  c #525B64",
"y  c #526C76",
"u  c #68746E",
"i  c #708D71",
"p  c #69885C",
"a  c #838262",
"s  c #8A8958",
"d  c #1A5E84",
"f  c #295E84",
"g  c #1C668A",
"h  c #1D6B92",
"j  c #1D6C97",
"k  c #1E729A",
"l  c #236384",
"z  c #2C6383",
"x  c #22668A",
"c  c #256A8B",
"v  c #2B6C8D",
"b  c #296887",
"n  c #336C8D",
"m  c #366984",
"M  c #37718C",
"N  c #226C94",
"B  c #2B6D91",
"V  c #216E9A",
"C  c #266993",
"Z  c #356D94",
"A  c #227096",
"S  c #23749C",
"D  c #2A759D",
"F  c #2C799E",
"G  c #2C7395",
"H  c #357495",
"J  c #3A7494",
"K  c #34759B",
"L  c #347B9B",
"P  c #3A7B9C",
"I  c #3A7897",
"U  c #1E7AA5",
"Y  c #2475A2",
"T  c #2A76A1",
"R  c #2479A4",
"E  c #2B7BA4",
"W  c #257CAB",
"Q  c #2B7EAA",
"!  c #2376A8",
"~  c #337DA4",
"^  c #377DA6",
"/  c #257BAD",
"(  c #457B98",
")  c #49768C",
"_  c #6C7984",
"`  c #4E7FA7",
"'  c #2581AD",
"]  c #2C81AC",
"[  c #2C80A5",
"{  c #3481A5",
"}  c #3C82A3",
"|  c #3383AC",
" . c #3B84AA",
".. c #3C89AB",
"X. c #3789AF",
"o. c #2584B4",
"O. c #2C84B3",
"+. c #2D89B5",
"@. c #2B86B9",
"#. c #2689BC",
"$. c #2C8BBC",
"%. c #2686BA",
"&. c #3285B3",
"*. c #348AB5",
"=. c #398BB4",
"-. c #338DBB",
";. c #398EBA",
":. c #3885B1",
">. c #2C91BF",
",. c #3492BE",
"<. c #3B93BD",
"1. c #3B94B8",
"2. c #33809E",
"3. c #45829D",
"4. c #578798",
"5. c #5B848A",
"6. c #6C8D8D",
"7. c #4284A4",
"8. c #4486A9",
"9. c #438BAD",
"0. c #4C8BAB",
"q. c #4B88A6",
"w. c #528CAC",
"e. c #578CA6",
"r. c #5792AC",
"t. c #428DB3",
"y. c #4B8DB2",
"u. c #468DB7",
"i. c #548EB2",
"p. c #4D93B4",
"a. c #4B95BB",
"s. c #4C9ABC",
"d. c #4594B8",
"f. c #5393B4",
"g. c #529BBC",
"h. c #5897B8",
"j. c #4890A9",
"k. c #6497AB",
"l. c #659AB6",
"z. c #7299A7",
"x. c #53A0BF",
"c. c #69A2BC",
"v. c #77A9B6",
"b. c #2B8DC1",
"n. c #278CC2",
"m. c #348FC1",
"M. c #2D92C3",
"N. c #3494C3",
"B. c #3B95C2",
"V. c #3699C5",
"C. c #3C9AC5",
"Z. c #369ACA",
"A. c #3B9CCA",
"S. c #3796C9",
"D. c #3B9DD2",
"F. c #3EA0CC",
"G. c #3CA1D2",
"H. c #439BC5",
"J. c #4C9CC3",
"K. c #429ECA",
"L. c #479AC9",
"P. c #539EC2",
"I. c #599DC6",
"U. c #419FD3",
"Y. c #43A2CB",
"T. c #4BA3CC",
"R. c #4AA4C8",
"E. c #53A2C5",
"W. c #5BA4C4",
"Q. c #5BA5CA",
"!. c #5CAACC",
"~. c #55A8CB",
"^. c #43A3D3",
"/. c #45A9D4",
"(. c #4CACD3",
"). c #45AADA",
"_. c #4BADDA",
"`. c #49A5D7",
"'. c #55ADD2",
"]. c #5BADD3",
"[. c #52ADDC",
"{. c #4EB1DB",
"}. c #5CB2D5",
"|. c #53B4DD",
" X c #5CB5DC",
".X c #5CBADE",
"XX c #54B2D7",
"oX c #63ACCC",
"OX c #68A8C6",
"+X c #78B1C9",
"@X c #63ADD2",
"#X c #64B2D5",
"$X c #6BB4D3",
"%X c #63B5DA",
"&X c #63BADC",
"*X c #6DBBDC",
"=X c #6BB5DA",
"-X c #73B4D3",
";X c #73BCDB",
":X c #79BDDC",
">X c #77B9D6",
",X c #6DAFCA",
"<X c #4DB2E1",
"1X c #5BBAE2",
"2X c #57B6E3",
"3X c #51AFE2",
"4X c #63BDE3",
"5X c #6ABEE3",
"6X c #66BBE5",
"7X c #72BDE1",
"8X c #75C1DE",
"9X c #7DC3DD",
"0X c #7FCADF",
"qX c #67C0DE",
"wX c #6CC2E3",
"eX c #64C1E5",
"rX c #74C4E3",
"tX c #7AC5E3",
"yX c #7DCAE3",
"uX c #7CCBEA",
"iX c #75C6E9",
"pX c #7CD0EC",
"aX c #88A8B4",
"sX c #97A48C",
"dX c #A5C795",
"fX c #A4C8AA",
"gX c #88B9CB",
"hX c #95B9C9",
"jX c #86BCD7",
"kX c #9ABDD0",
"lX c #80BFE2",
"zX c #84C3DD",
"xX c #89C5DE",
"cX c #87C4D7",
"vX c #96C7DB",
"bX c #90C5CF",
"nX c #83C5E2",
"mX c #83CBE4",
"MX c #84CCEA",
"NX c #8ACAE6",
"BX c #96CCE4",
"VX c #84D1EC",
"CX c #87D2EA",
"ZX c #98D4E9",
"AX c #89D4F3",
"SX c #96D9F5",
"DX c #83C8F1",
"FX c #A4DCEF",
"GX c #98E1FB",
"HX c #A9DFE8",
/* pixels */
"9 m m n v v z z z z z 7 z f f f f f z f 4 z z 4 4 4 4 4 f z z 7 7 4 4 4 4 z 3 z 4 3 7 7 3 3 f 3 3 z 4 4 7 7 4 4 7 3 5 5 5 5 6 6 ",
") e.f.a.a.y.i.r.i.w.f.i.w.w.i.i.i.i.i.i.f.w.w.i.i.r.i.w.w.f.w.0.w.q.w.w.0.0.w.w.q.w.q.q.w.w.0.0.0.0.w.w.q.0.q.q.q.q.q.q.q.q.4.9 ",
"Z h.]. X X=X-XOX8.oXoX=X:X{ Q.@XoX>X:X7.#XoX>XOX8.oXoX$X:X7.W.!.=X>Xh.i.W.oX$X-X0.g.W.oX-XOXf.s.!.Q.lXw.0.W.oX;XOXf.a.!.].Q.c.m ",
"Z a..X1X4X*Xf.J 8.:XuX7X{ L #XuXoX;XI ^ ;X*Xp.H 8.:XuX:X^ J oXMXMXOXI 7.$XAXmXy.B W.rXtXOX( 7.OXrXtXc.n g.;XtX=X^ P P.}.|. X,Xm ",
"B a.5X%XoXh.` ( I h.h.h.P P f.OX( I J ( c.h.7.J I h.h.h.( J r.OXOXh.( ( OXzX-Xr.n 0.OXOXh.( ( r.,XOXe.M 3.c.OXl.q.I d.].1X%XOXz ",
"B y.7X*Xi.( J Z H P K ^ I I I P P I I I ( P v H H P P P J H J I P I M n J 3.( H b J I J n v m n M J m 7 m n Z Z n B 9.~. X#XOXz ",
"v y.tX-X` n K ^ | Q ^ :.| { { { L L ~ L ^ ~  .~ ] | E | E { { { { ~ I P P L L L F F F A V G B B B B G B G c G B B 8.Q.%X#X$XOX9 ",
"b p.7XI.( Z K ;.B.B.L.L.H.<.=.| | ~ T E T T Q ;.B.B.H.T.T.T.T.~.].#XoXoXoXW.x.E.J.J.<.;.=.=.=.:.=.:.=.:.=.=.X.....Q.uXtX#X$Xl.5 ",
"v y.P.} J v ~ <.^.^.`.^.B.C.<.=.| | ^ E T E &.;.B.`.[.2X1X6XeXiXAXAXAXAXAXVXuXtX5X4X|.[.`.T.K.K.K.K.K.K.K.K.C.K.s.;XGXVXoXg.( 2 ",
"z i.a.t.I b ~ <.Y.^.`.`.N.B.,.*.&.:.Q ^ E E ] &.-.A.`.3X1X1X4XeXiXVXAXVXVXAXMXtXiX6X2X|.|.(.Y./.A.A.^.A.A.A.A.A.s.8XGXVXoX} ( , ",
"C u.%X#X3.v G :.B.A.U.^.S.B.m.-.&.| | | ^ E Q O.O.m.^.).3X2X2X1XwXiXuXVXVXVXVXuXrXwXeX1X|.|._./.`.^.^.A.D.D.Z.A.a.8XGXMX@X!.h.5 ",
"f u.6X#Xq.m B | ;.B.A.^.A.N.N.-.&.] ] | | E Q ] O.+.N.^._.2X2X1XeXqXwXuXVXmXVXVXpXwXwXeX2X|.|.|.{././.^.A.D.D.C.s.:XSXNX@XoX,X5 ",
"x a.6X=X3.m B ~ :.<.C.F.A.Z.N.+.O.] ] ] { ~ E E ] O.;.K._._.|.2X.X.XqXrXuXmXMXmXMXVXrX&X&XeX1X|.2X<X<X).G.A.Z.A.a.:XSXMX@X$Xc.2 ",
"l y.iXy.M m B ^ :.;.B.C.A.A.N.$.O.O.] E ~ ~ E T ] O.&.B.^./._.|.|..X4XwXuXVXCXmXCXmXiXrXwX4X.X2X2X{.<X).G.A.A.B.a.:XSXmX$X>Xk.2 ",
"l 0. .L M 9 B ^ :.&.;.B.A.A.Z.N.$.@.O.E ~ ~ E E Q O.O.-.S.^._.<X2X|.2XeXiXuXMXCXmXmXMXuXrXwXeX1X4X2X|.{.|._.Y.Y.s.8XSXmXE.I m > ",
"3 8.!.E.J 7 B ^  .| ;.<.C.A.Z.Z.m.$.O.Q Q ~ T E E &.&.@.N.^.^.).<X{.2X1X5XiXMXMXmXmXmXMXuXtX5XeX6X1X2X|.|.|./.Y.s.8XGXyX!.I.e.2 ",
"1 y.%X#X7.z v ~ ^ E :.;.B.C.A.A.N.$.O.O.Q ~ E T E E | O.-.N.^.).{.{.|.|.1X5XrXyXmXmXmXmXMXuXiX5X6XeX4X1X1X X'.'.g.8XSXtX].@Xc.2 ",
"1 8.%X#X7.v v L ~ E [ =.<.S.D.Z.Z.N.+.O.] Q T T E T Q &.*.N.A./.)._.3X2X2X4XwXtXyXmXmXmXyXMXMXuXiX4X6X6X.X X X'.!.nXSXtX].oXc.2 ",
"1 0.DXQ.P n B ~ ^ E [ :.<.K.A.A.A.N.$.+.O.Q E D T T E ] &.-.N.A.^.)._.2X2X2X4XwXuXmXmXmXmXmXmXyXuXiXwX5X4X1X|.}.oXmXSXtX$X$Xl.2 ",
"1 8.u.K H n B F  .F E ] =.B.C.A.A.N.N.+.O.] Q T D D T E &.*.m.S.^._._.{.2X2X1XwXuXuXmXmXmXmXmXmXmXyX8XwX5X4X.X X#XMXSXtXW.8.) & ",
"1 8.P.a.H b G ~  .~ T ] &.;.C.C.A.C.N.-.+.O.Q E D D D T ] &.-.N.S.Y.^./.|.|.XX4XwXtXMXmXmXmXmXyXmXmXyXrX5XwXeX&X;XCXSXrXW.j.( & ",
"1 8.}.E.} n A ~ =.] E Q ] ;.B.K.C.S.N.N.$.+.O.Q T F D D E O.-.-.N.C.^._._.|.1X X&X7XtXmXmXmXyXyXmXmXmXyXrXwXwX*X-XNXSX8X!.x.k.& ",
"1 9.}.}.7.H D | ;.] ] E Q :.=.H.C.A.S.N.$.$.O.] E D D D T Q O.-.m.N.A.).)._.|.|.4X&X*XiXyXyXyXyXmX9XmXmX8XrXiX*X>XBXSXrX!.oXc.> ",
"1 7.5X].7.v F &.<.*.] Q ] | =.<.C.C.S.N.M.$.+.O.Q T D D D R Q O.$.m.S.G.)._.{.|.|.&XwXiXyXyXyXyXyXyX0X0XyXtX8X8X>XZXAXrX!.!.c.& ",
"1 8.@Xt.J B F ;.B.;.' W Q ] &.<.C.C.C.S.M.>.,.O.] T D D T T W O.$.$.M.Z.G./._.{.|..X5XtXuXmXmX9XyXyX9XmXmXtXtX8XjXZXAX8X].oXl.& ",
"< 8.a.K B c T ;.m.;.O.' Q Q | ;.C.C.C.A.V.M.N.+.O.Q T T D T R W O.$.M.N.Z./.).{.|.1X X*XuXnXnXmXmXmXnXnXnXnXmX9XcXZXSX*X!.W.r.# ",
"< 7.a.t.H x T -.B.N.$.o.W Q ] &.<.C.C.A.Z.M.N.-.O.] Q R T T E R ' O.+.-.,.A.^./._._. X4X*XtXmXzXNXnXNXxX9XmXmXzXcXvXZX>Xg.P m # ",
"< 7.@X*X} v R ;.S.N.N.$.W W ] | ;.B.C.C.C.N.N.N.+.O.] Q E T R T W ] O.*.-.B.A.^.).|. X}.*XzXvXvXvXBXgXcXNXcXcXxXcXZXZX>XW.i.( # ",
", } R.%X8.c E -.S.N.M.$.O.W Q ] =.<.C.C.C.C.V.N.-.+.O.] Q R D D R W ] O.$.M.Z.G.)._.'.#XjXvXkXhXaXaXaXz.v.bXbXbXbXZXSX;X!.W.l.& ",
": } E.}.7.v S <.A.N.>.$.O.Q Q ] ] =.B.B.C.A.C.N.M.$.@.O.] E R R Y Y W O.@.$.M.Z.G./.XXoX+XkXaX6.sX_ r = 6.kXhXaXbXZXSXnXoXW.l.* ",
": 7.;XD b b T ;.^.S.N.$.+.O.Q [ ] ] ;.B.B.C.C.V.N.N.$.@.O.Q R D D D T Q O.@.b.M.D.G.T.oX+XaX6._ u y r = i fXi = 4.gXSXNX$XOXk.& ",
"- ( ~ C b l F <._.^.N.$.+.O.] [ ] ] =.<.B.C.C.S.S.N.b.$.O.O.Q R D D A D W o.$.b.Z.Z.T.oX+XaX6.u u u r = i fXu = y c.ZXSX;Xf.) + ",
"; 7.J.E.P c D B.[.A.Z.>.$.+.' [ ] ] | ;.B.B.C.A.Z.Z.N.$.$.O.O.W Y D G A S W O.$.M.Z.K.!.+X6.i sXdXe q X i dXw 6.4.0.+XNX>XJ 9 + ",
"; } Q.#X} c E B._.F.Z.N.$.+.O.[ ] E ] &.;.B.C.C.S.S.S.N.$.%.o.W W T A A A T W o.$.N.C.J.c.5.e s e o q X p dXw z.e.8.OXNXZXjXv.# ",
"; ^ !.*X} v F C._.^.V.C.b.$.+.[ ] ] [ ] *.<.B.C.S.A.A.Z.$.$.@.O.O.W S A A V Y W @.@.-.P.k.i e s e X . . p dXw z.q...,XZXFXBXhX& ",
"; } =X^ v l ] K._.`.A.C.N.$.+.O.] ] [ [ O.;.B.B.C.A.A.A.N.$.$.$.o.W S S S V S Y W O.*.t.c.u e a a o . . i dXw z.q...,XBXFXvXhX+ ",
"; P ~ N l g | K.(./.F.N.N.-.+.O.Q ] Q Q ] *.1.B.B.C.A.A.V.N.$.$.o.' R S V V V S U ] ] t.r.6.q . . .     i sXw 5.3.} ,XZXZX4.) + ",
"- P d...B x E Y.[././.V.S.N.-.-.] ] ] Q ] &.=.<.B.C.C.A.S.N.$.$.$.O.' Y S A N h S R Q t.l.4.t q = $ $ + 6.6.6 ) L ..+XFXFXv.k.+ ",
"- P Q.E.P c | T.|././.F.S.B.;.;.*.O.] ] ] ] :.;.<.C.C.A.A.Z.M.$.b.$.o.W S A A h j S E t.r.z._ t t r $ + 4.r.8 c F | ,XZXFXbXaX+ ",
"- P Q.].P x [ T.2X(././.V.B.B.;.-.O.Q Q Q Q | =.<.B.B.C.A.S.N.b.b.$.%./ R k k A j S T 8.w.4.y 6 r = + + e.oX9.S R | +XZXFXBXhX+ ",
"- P =XP.J x [ T.|.(././.F.B.N.N.-.O.] Q ] ] | | =.<.B.C.A.A.Z.N.$.$.%./ W Y j A V V S ~ P z , > & # @ - p.&X].d.] | OXBXFXvXhX+ ",
"; P @X .c g [ Y..X(.(./.Y.C.N.N.,.+.O.] ] Q Q ] :.1.C.C.C.A.S.V.$.$.#.o.O.R j A V V V D D x 1 1 1 1 1 d s. X&X'.=...OXBXZXgXaX+ ",
"- P L N l l [ T..XXX(./.Y.A.C.N.,.-.+.] Q Q Q ] | ;.<.C.C.A.A.S.M.n.n.#.o.R S S V N N V F F ~ { | | u.d.(.XX X}.'.x.,XxXBX4.) + ",
"- P s...v g E R. XXX(.(.Y.K.C.B.,.,.*.O.] Q ] ] ] ] ;.C.C.A.A.S.Z.M.n.#.o.' W S V N N N A S E ] ] +.B.K.(.(.'.&X}.#X>XxXBX+X5.  ",
"- J ].~.I l ~ R. XXX(.(.Y.Y.A.C.N.,.-.+.] ] ] ] ] ] ;.B.B.C.K.K.A.V.$.#.#.%.W ! V j N N h k S R O.o.N.N.C.R.(.].#XtXNXxXBXFXhX+ ",
"- P Q.Q.P l F J.&X}.XX(.T.Y.A.A.V.N.,.-.O.] Q Q ] ] O.<.C.C.H.Y.F.V.N.b.#.#.o.W Y j h g g h k R ' $.b.%.V.Y.T.'.#XmXZXzXcXvXvX+ ",
"- P #Xu.n l { ~.5X%X}.'.(.Y.A.C.C.V.N.,.-.] ] Q ] ] ] *.B.C.C.C.A.S.Z.N.#.#.%.U U k h g N h j Y W o.$.@.,.S.`.T.oXmXZX>XOXr.z.+ ",
"; H ~ d 3 1 ~ ~.iX&X}.'.(.Y.A.A.C.V.N.N.;.O.] ] Q ] ] ] 1.B.B.C.C.A.S.N.b.%.o.o.U k h g N N N T W / o.@.$.$.^.T.oXzXNX-Xf.b 9 O ",
"- J 9.L 1 1 2.~.tX%X X}.(.T.Y.C.A.S.B.N.,.-.O.Q ] ] ] ] &.;.<.H.C.B.A.S.$.#.%.o.' U k j h N x h k R W o.O.+.N.Y.W.zXNX=Xg.p.4.+ ",
"- J g.P.H 8 L ~.iX&X&X}.'.T.Y.A.A.A.C.N.,.;.*.] Q ] ] ] &.=.<.B.<.C.K.C.N.b.%.$.' U U k h N x g j Y W o.O.+.$.<.W.zXNX$XP.g.k.O ",
"- H Q.W.I l L ~.tX*X#X}.R.R.K.K.C.K.C.B.B.,.;.O.] ] Q Q ] :.;.<.<.B.C.K.A.b.o.$.o.W R k j h h h h j Y W Q O.$.*.p.>XMX=XE.g.k.O ",
"; J @XG l 3 L !.iX*X%X].'.T.Y.C.C.C.C.C.B.<.;.*.O.] Q Q ] | :.1.<.B.C.C.N.N.M.o.o.o.W k j j g h h A V S W ] o.+.t.-XMX;XQ.oX( O ",
"; H G x 1 3 } !.tXrX=X%X!.'.Y.K.C.C.C.C.C.,.,.-.&.] Q ] ] ] | ;.<.,.B.C.V.V.V.>.%.o.' R k j h h h h j j S W o.O.9.-XNX-Xp.0 9 O ",
"; L t. .b 3 7.$XtXrX*X@X!.~.T.Y.Y.C.C.F.C.V.,.,.;.O.] [ ] [ ] &.;.<.C.A.F.F.V.>.%.o.o.W R S j h g h g g S Y W O...$XNX>Xp.I m O ",
"- H W.W.H l 7.$XyXtX;X$X!.~.(.Y.Y.Y.Y.Y.K.C.B.B.<.;.&.] ] Q ] ] ;.B.B.K.Y.C.N.V.$.o.o.O.W T S j x g x x h k R Q ..$XNX;XP.p.e.O ",
"; G oXg.v l 7.$XtXtXrX=X#X'.(.Y.K.K.Y.K.K.K.C.B.B.<.=.O.] ] ] Q &.;.H.K.K.C.N.V.N.%.o.o.W R S A C c x g N j S E 7.-XMX$XJ.g.r.O ",
"; I f.H l 1 8.$XtXtXrX;X%X~.XXY.Y.K.K.K.K.K.A.C.K.B.;.O.Q ] [ ] | =.<.H.Y.K.C.C.A.$.@.O.O.W T S A A x g N h g G 3.,XNX=XE.h.e.O ",
"- J K g 1 1 9.$X:X;XtX8X;X#XR.J.R.R.R.J.J.R.J.J.J.J.J.a.{ { { ~ | ^ ..d.J.R.T.R.L.H.<.=.=.t... ...} ^ P ^ L L 3.4.+XNX$XP.f.)   ",
"; K t.^ g c 9.$X:XnXzXzXxXzXnXnXzXnXnX9XzXzXzXzXnXnXzXzXzXzXzXzXzXxXzXzXnXnXzXnXnXNXtXmXnXzXzXxXzXNXjXjXjXxXjXgXgXBXBX+Xa.n 9   ",
"; K I.J.t.t.a.#X8XyXmX9XxXzXNXnXnXzXzXzXnXnXnXnXzXzXzXzXxXzXNXzXzXzXxXxX9XNXnXnXnXnX9XnXNXzXzXzXzXNXjXZXZXBXBXZXBXZXxX,Xa.H 9   ",
"; K I.L.J.s.J.J.d.s.s.s.g.t.s.E.P.E.J.s.s.s.s.s.d.g.s.g.s.d.s.s.s.s.p.t.=.F N N N { s.J.P.P.s.J.R.J.P.a.s.s.g.h.f.p.s.J.H.J.r.@ ",
"- H P.J.s.J.P.t.D s.d.!.!.g t.J.J.E.P.s.J.P.s.t.F s.a.!.Q.g t.s.!.W. .G d.E | | g =.1.R.J.t.| 1.H.J.=X^ ..s.a.7X9.} d.J.H.J.r.@ ",
"# m w.y.p.0.n 1 z w.i.i.i.f.f.f.f.f.f.f.f.0.H , b i.f.0.3 1 P f.0.H 1 1 8.9.K < < I L 8.b < l 9.a.p.z : P f.a.L 1 g } a.J.a.e.& ",
"O & : : : , - % @ > > : , : , < < < : : , : - @ @ > : : @ @ - - : - @ @ ; < : % % % ; , , > ; 1 l l , * , l b l < < l B ~ H ) + "
};
