/* XPM */
static char *result[] = {
/* columns rows colors chars-per-pixel */
"40 40 250 2 ",
"   c #5A3D09",
".  c #5D3A19",
"X  c #673909",
"o  c #793608",
"O  c #69331D",
"+  c #683817",
"@  c #7D3C1A",
"#  c #793A14",
"$  c #782D17",
"%  c #5F3A23",
"&  c #693424",
"*  c #743C23",
"=  c #0E6C1D",
"-  c #0C5C2A",
";  c #095B28",
":  c #115C2E",
">  c #115F25",
",  c #0B5B34",
"<  c #0C553A",
"1  c #0D5A3D",
"2  c #07583B",
"3  c #13553C",
"4  c #125B3A",
"5  c #155935",
"6  c #2B4B34",
"7  c #0D6629",
"8  c #136A26",
"9  c #166338",
"0  c #1A7536",
"q  c #0A623A",
"w  c #277A3C",
"e  c #306430",
"r  c #494B08",
"t  c #574708",
"y  c #4A4918",
"u  c #574416",
"i  c #4C5B13",
"p  c #7C480D",
"a  c #784419",
"s  c #664208",
"d  c #4D6918",
"f  c #574222",
"g  c #4C562D",
"h  c #6A4125",
"j  c #655C25",
"k  c #477922",
"l  c #587727",
"z  c #4F6E38",
"x  c #6C6C2E",
"c  c #144E49",
"v  c #0B5645",
"b  c #135544",
"n  c #125B42",
"m  c #12544B",
"M  c #19584B",
"N  c #194D55",
"B  c #165454",
"V  c #0E5955",
"C  c #28564A",
"Z  c #1A6C48",
"A  c #26684A",
"S  c #247449",
"D  c #256955",
"F  c #2B7856",
"G  c #367A59",
"H  c #336A4D",
"J  c #376D6E",
"K  c #357868",
"L  c #267061",
"P  c #853A18",
"I  c #8C3D28",
"U  c #924418",
"Y  c #8A521F",
"T  c #BB5D19",
"R  c #A64B14",
"E  c #BE640D",
"W  c #BA6318",
"Q  c #8D512A",
"!  c #A75924",
"~  c #B55B25",
"^  c #AC4C34",
"/  c #8D7433",
"(  c #B8682D",
")  c #C55B13",
"_  c #C85A17",
"`  c #C95A0E",
"'  c #C96516",
"]  c #D5751F",
"[  c #D66318",
"{  c #E86D1B",
"}  c #EC731C",
"|  c #E6781A",
" . c #F1731B",
".. c #F57315",
"X. c #FB6B1A",
"o. c #D86B27",
"O. c #CD742F",
"+. c #DB7426",
"@. c #C86C37",
"#. c #CA7038",
"$. c #D77835",
"%. c #CD6621",
"&. c #E76D2D",
"*. c #F96F21",
"=. c #EA7422",
"-. c #E57528",
";. c #F37426",
":. c #E47535",
">. c #F26D32",
",. c #C55C2F",
"<. c #8A7941",
"1. c #2DA91D",
"2. c #31B01F",
"3. c #2D9E25",
"4. c #33993D",
"5. c #2E9133",
"6. c #2CA224",
"7. c #2CAC23",
"8. c #2BA52A",
"9. c #2DAD2B",
"0. c #25A024",
"q. c #32A424",
"w. c #32A42B",
"e. c #32AB2B",
"r. c #34A628",
"t. c #2DB22D",
"y. c #39B72D",
"u. c #2EA737",
"i. c #31A534",
"p. c #34A935",
"a. c #3AA739",
"s. c #3CB434",
"d. c #3DBB34",
"f. c #3DBD39",
"g. c #39B538",
"h. c #538739",
"j. c #499934",
"k. c #539434",
"l. c #668537",
"z. c #65933B",
"x. c #67862E",
"c. c #44AC39",
"v. c #59A337",
"b. c #43BD35",
"n. c #49B43D",
"m. c #45BD3B",
"M. c #4ABD3B",
"N. c #47B738",
"B. c #53B73B",
"V. c #3DC629",
"C. c #3EC335",
"Z. c #3EC33B",
"A. c #3FC834",
"S. c #43C52F",
"D. c #48C62B",
"F. c #43C435",
"G. c #49C334",
"H. c #45CB35",
"J. c #4AC936",
"K. c #44C33B",
"L. c #4BC33C",
"P. c #4BC93C",
"I. c #45C93C",
"U. c #51C337",
"Y. c #41D134",
"T. c #2B8D43",
"R. c #388C4D",
"E. c #3B9C45",
"W. c #39954C",
"Q. c #339C4C",
"!. c #3C9B4A",
"~. c #359645",
"^. c #2E8353",
"/. c #368858",
"(. c #3D9B53",
"). c #3B945B",
"_. c #389755",
"`. c #2F984C",
"'. c #3CA34B",
"]. c #3AA345",
"[. c #3CB547",
"{. c #3CA654",
"}. c #388765",
"|. c #3B9562",
" X c #43994A",
".X c #449957",
"XX c #51914C",
"oX c #44AC45",
"OX c #42A44C",
"+X c #47AA49",
"@X c #55AB48",
"#X c #44B242",
"$X c #46BC42",
"%X c #4BBD44",
"&X c #4BB44D",
"*X c #4CBD4B",
"=X c #45B54B",
"-X c #52BC44",
";X c #53BB4C",
":X c #55B649",
">X c #49A555",
",X c #43AC54",
"<X c #4CAB54",
"1X c #46A25C",
"2X c #48AA58",
"3X c #51AE5A",
"4X c #4BB252",
"5X c #4EBA53",
"6X c #4AB658",
"7X c #52B453",
"8X c #54BB55",
"9X c #56B959",
"0X c #68AF4B",
"qX c #449963",
"wX c #4B9768",
"eX c #4FA862",
"rX c #59B467",
"tX c #54AC6C",
"yX c #63B477",
"uX c #45C342",
"iX c #4BC343",
"pX c #4CC34A",
"aX c #4AC845",
"sX c #53C24A",
"dX c #57C444",
"fX c #59C159",
"gX c #49C155",
"hX c #96843A",
"jX c #E88528",
"kX c #F5842A",
"lX c #FD9A2A",
"zX c #FB9A39",
"xX c #EF9331",
"cX c #FFA42D",
"vX c #FCAD28",
"bX c #FDB229",
"nX c #FDA431",
"mX c #FFAC33",
"MX c #FEA33D",
"NX c #FDAB3B",
"BX c #F5AC38",
"VX c #F9B136",
"CX c #F0871E",
"ZX c #BBA34D",
"AX c #D2AE4A",
"SX c #FEA341",
"DX c #F8AE42",
"FX c #F5B046",
"GX c #E7B350",
"HX c #D1B36A",
/* pixels */
"F.F.U.B.iX*X$XG.F.S.A.C.K.K.K.uXuXL.b.K.K.F.F.S.V.D.D.B.rX^.V A 6X&X$XaXf.uXN.L.",
"I.K.iXuXG.P.P.%XsX%XaXC.C.J.F.iXuXP.G.P.aXaXI.P.P.%X8X1X, 2 m c 7 E.N.F.I.F.F.K.",
"$X$XaXK.I.I.K.iX*X*XiXL.P.F.G.G.uXuXJ.G.iXsXuXaX%XeXS v v 3 n B v 0 oXb.J.J.F.S.",
"sXuXK.Z.g.%XiXG.F.J.P.M.sX%XG.D.aXP.L.L.uXuXaX$X~.3 m m S ).R.^.L 4 0 Q.&XaXb.D.",
"iXm.%Xi.OX4.oXM.H.H.J.L.%X%XK.y.F.F.M.iX%XL.uX'.4 c M H .X7X7X7XqXS n v ^.2X5XN.",
"M.&XQ.0 - 7 8 4.6X8X;XpXJ.V.7.u.7.y.b.M.M.m.*XT.b B /.XX0XdX-XsX;X.XF N B , w 4.",
"8X0 2 v 5 > > 9 4 3 |.6XY.V.7.u.e.7.r.y.K.$X3X, n }..X7X:X;X*XgX-X+XwXJ J b ; 0 ",
"F n v V wXwXeXwXA b 1 7 gXpXg.8.9.p.r.7.2.*X0 n F W.7X8XfX*X=X{. XR.9 3 A - w eX",
"N c b F /.eX2X<XrXrX8 - 4 S 8X1.6.i.i.7.1.4X9 n W.*XdX8X9X&X,X_.b < , ; ; 5.*X%X",
"D 3 4 ).(.5.OX&X%X%X9XyXM C w ;Xw.3.6.8.a.0 , }.<X;XdX&X*XOXeX9 m Z ).4.5.i.b.H.",
"9X7 ; qX{.!.W.2X4X#XsX9XrXw 5 A #X7.1.[.R.1 S .X&X9X7X=X].>XZ c 8 3X].u.u.t.A.V.",
"b.5X; , |.(.(.(.eX4XgXsXdXfXH B !.%XP.9X, m }.!.7X9X<X+X2X.X3 N *X$Xm.y.t.g.F.K.",
"D.%X~., 1 |.(.!.!.2X+X$XiX9XyX9 7 eX4X8 < D ).].&X:X+X2X1X, 1 M uXK.I.K.aXiXm.m.",
"m.uX+X0 v 2 qXE.].].&XoX7X9XrX= , tXtX- - .X_. XoXn.@X1XF , - rX*XaXm.uX$X$XG.K.",
"m.K.K.4.9 1 4 .X!.E.E.7X<X4X9X#X< D m n R.<X<X>XoXa.#X.Xn n `.iXM.uXiXM.K.K.K.F.",
"F.K.I.p.E.9 b M G .X X'.=X#XgX3X< B N b .X9X3X>X2X[.E.S v 1 6XH.U.U.L.%XK.G.F.K.",
"F.f.pXC.V.4X5 N D ^.Q.(.{.4XfXgXD 3 5 XXOX,X[.=X+X_./.v ; rXpXm.uXuXL.K.K.Z.F.K.",
"C.F.aXiXuX;X3X: b G /.(. X:X;XdXtXw w 3X{.{.,X,X X.XH 3 S sX$XaXP.iXG.K.I.A.F.F.",
"F.F.U.pXgXiXU.+X4 b F R. X X;XdXfX8XfX4X'.,X2X(. XG H 5 9XG.P.%X$XL.uXK.I.Z.I.F.",
"F.P.L.iXiXP.C.%X(.1 D /.(.j.].6XgX&X:XoXa.].~. XG K V q =XS.F.sXU.M.L.P.K.aXA.K.",
"G.iXiXL.P.P.aX9.u.8 1 F |.Q.Q._.{.'.OX].a.a.Q.^.K V v 9 [.A.H.sXiXM.M.aXI.aXd.K.",
"m.iXU.b.P.L.aX9.8.OX: v F (.Q.Q.(.W.`.`.`._.|.D m c 6 XX;Xm.G.iXG.P.L.G.d.aXK.K.",
"m.P.P.L.iXuX$X7.3.a..X1 n G ~.4._.R.)./.}.D A C 6 + X t l.@X:XN.K.aXK.e.7.s.I.K.",
"K.K.P.iXM.I.y.q.3.g.6X0 n J /.4.R.e e e e z x <.p ( :.$.P r v.b.K.K.Z.w.7.6.f.Z.",
"J.K.uXiXP.S.7.8.6.N.pX~.b J K S e g x hXZXAXGXDXDXSX+.) ,.X x B.b.Z.9.8.6.q.Z.Z.",
"F.m.aXL.J.d.i.8.6.U.B.XX6 C H z hXHXGXFXVXbXvXvXSX] W ) o.#.t v.n.s.t.e.3.q.K.K.",
"F.G.iXaXF.d.7.3.w.v.x.y g g j AXGXFXNXmXbXvXmXzX` T W +.=.o.s z j.q.8.6.q.M.G.Z.",
"K.m.iXuXK.e.3.3.B.x.t X Q / AXvXvXvXvXVXbXBX] ) ' T +.kX .-.o f d j.p.3.1.M.m.K.",
"K.L.L.iXy.0.0.a.0Xi X Y ~ W xXvXvXVXvXmXmXjXE W E SXMXkX..;.T X r h.3.q.N.L.F.K.",
"K.L.uXm.m.g.[.;X0Xr X ! W +.xXMXVXVXNXVXcXNXNXMXcXvXmX| } =.:.R + i k.q.m.P.K.F.",
"G.I.C.m.M.uXaX-X0Xt X ! %.-.zXzXNXNXNXmXVXmXmXmXmXnXzX| } } &._ $ t v.#Xm.K.F.F.",
"M.F.F.I.sX%Xb.B.k.r X ! :.kXCXcXlXnXmXVXVXBXBXBXxXSXkX=.| } &._ ^ u k %XK.F.P.b.",
"U.D.s.n.%Xf.t.p.h.y X ~ { .. .jXzXzXcXcXnXMX+.) ' zX{ ..*.>.~ Y I X k :XM.U.U.K.",
"b.b.g.g.g.g.t.w.j.y X U $.=.{ ;.=.jXjXzXxXT _ ) +.}  .} :.( Q @ $ u h.-XL.L.iXG.",
"C.m.a.p.p.e.q.q.j.i O $ P $.;.X.-.-.o.W W T _ -.-.=.;.:.! a h * X r v.uXK.F.L.L.",
"Z.$Xn.p.w.r.q.r.c.h.. O @ ! $.*.{ ` ) ) ) o.=.} ..>.&.~ Y h h O r z.:XP.K.L.M.G.",
"Z.uX$Xc.a.r.r.y.c.j.z . & @ ! O.[ ` ` [  .......X.&.#.P @ + + u k.@X#Xd.b.L.L.K.",
"Z.Z.$Xn.c.s.g.f.b.n.c.h.y O a # ( #.O.o.o.+.-.&.:.@.# a + u d z.N.M.N.m.b.M.m.K.",
"H.K.m.$XN.d.f.uXN.N.N.oXXXy + @ # @ # # # P P I @ @ + . u l v.c.m.N.m.b.M.d.K.K.",
"F.F.K.K.M.K.K.L.G.M.iXM.@Xz + $ & O O . % & & & & . O + j z.B.N.F.K.f.K.K.K.uXM."
};
