/* XPM */
static char *result[] = {
/* columns rows colors chars-per-pixel */
"40 40 128 2 ",
"   c #602B0B",
".  c #692F0C",
"X  c #673314",
"o  c #693517",
"O  c #663519",
"+  c #693519",
"@  c #6C391C",
"#  c #733A18",
"$  c #6E3E23",
"%  c #733F22",
"&  c #36513D",
"*  c #375C3F",
"=  c #6F4026",
"-  c #734124",
";  c #7B4425",
":  c #7B4D24",
">  c #714229",
",  c #1D4D46",
"<  c #144F4C",
"1  c #14514C",
"2  c #18574D",
"3  c #1A5A4C",
"4  c #275647",
"5  c #21534D",
"6  c #20594A",
"7  c #1E634C",
"8  c #1F6150",
"9  c #256347",
"0  c #2B6446",
"q  c #286A47",
"w  c #21664C",
"e  c #286649",
"r  c #256E4D",
"t  c #3C6A46",
"y  c #27724D",
"u  c #2A7549",
"i  c #2E7C4D",
"p  c #276D52",
"a  c #286F53",
"s  c #2A7452",
"d  c #2E7A53",
"f  c #337E57",
"g  c #337B58",
"h  c #5B6F41",
"j  c #5C7442",
"k  c #607241",
"l  c #803F18",
"z  c #8F461A",
"x  c #954817",
"c  c #944D1E",
"v  c #9F4E1B",
"b  c #AB531C",
"n  c #B25317",
"m  c #B65518",
"M  c #BA5719",
"N  c #B5581C",
"B  c #BB5A1D",
"V  c #824522",
"C  c #90502D",
"Z  c #A35423",
"A  c #A85623",
"S  c #AC5B2B",
"D  c #B25E2B",
"F  c #8D7B3A",
"G  c #A96123",
"H  c #C25C1B",
"J  c #C5621D",
"K  c #CF631D",
"L  c #D5661E",
"P  c #DE6A1F",
"I  c #E16B1F",
"U  c #C36021",
"Y  c #CB6626",
"T  c #CC6F23",
"R  c #D76B21",
"E  c #DA6921",
"W  c #CD7923",
"Q  c #D37422",
"!  c #D77924",
"~  c #DB7D25",
"^  c #E46E21",
"/  c #E17322",
"(  c #EE7221",
")  c #EF7C25",
"_  c #F07E25",
"`  c #2E814C",
"'  c #32864C",
"]  c #348C4C",
"[  c #36954C",
"{  c #39954D",
"}  c #36994B",
"|  c #3B9C4C",
" . c #338255",
".. c #368C51",
"X. c #388A51",
"o. c #369050",
"O. c #3D9453",
"+. c #3EA24C",
"@. c #409D4E",
"#. c #419C52",
"$. c #41A54D",
"%. c #45AC4D",
"&. c #49AE4E",
"*. c #4BB34E",
"=. c #4FB94E",
"-. c #51B54F",
";. c #53BC4E",
":. c #57C04F",
">. c #58C34F",
",. c #80803F",
"<. c #95863D",
"1. c #E68D2A",
"2. c #F18126",
"3. c #F38628",
"4. c #F48A29",
"5. c #EC932C",
"6. c #E7982D",
"7. c #F5972D",
"8. c #F69D2F",
"9. c #FA9C2F",
"0. c #CCA039",
"q. c #DFAB38",
"w. c #E6A134",
"e. c #E9A535",
"r. c #FBA531",
"t. c #F7AA34",
"y. c #FDAD34",
"u. c None",
/* pixels */
"u.u.u.u.u.u.u.u.u.u.u.u.u.u.u.u.u.u.u.u.u.u.u.u.u.u.u.u.u.1 < 1 u.u.u.u.u.u.u.u.",
"u.u.u.u.u.u.u.u.u.u.u.u.u.u.u.u.u.u.u.u.u.u.u.u.u.u.u.u.1 < < 1 1 u.u.u.u.u.u.u.",
"u.u.u.u.u.u.u.u.u.u.u.u.u.u.u.u.u.u.u.u.u.u.u.u.u.u.1 1 1 1 1 1 1 1 u.u.u.u.u.u.",
"u.u.u.u.u.u.u.u.u.u.u.u.u.u.u.u.u.u.u.u.u.u.u.u.u.1 1 1 a X.X. .s 1 1 u.u.u.u.u.",
"u.u.u.u.u.u.u.u.u.u.u.u.u.u.u.u.u.u.u.u.u.u.u.u.1 < 2 d #.-.;.*.#.s 1 1 1 u.u.u.",
"u.u.u.< 1 1 1 u.u.u.u.u.u.u.u.u.u.u.u.u.u.u.u.1 < 3 f O.>.>.;.;.;.O.d < 1 < 1 u.",
"u.< 1 < 1 1 1 3 1 1 u.u.u.u.u.u.u.u.u.u.u.u.u.1 1  .O.-.>.;.;.;.;.%.| g s 1 1 1 ",
"< 1 < 1 { &.%.%.w 1 1 1 u.u.u.u.u.u.u.u.u.u.1 1 d #.-.;.:.;.%.$.+.] 3 2 p 1 1 u.",
"1 < 1 y ] %.&.*.;.;.3 1 1 2 u.u.u.u.u.u.u.u.1 2 O.;.:.:.;.*.$.$.1 1 1 1 1 u.u.u.",
"< 1 3 | | ..#.&.*.;.:.>.3 1 1 u.u.u.u.u.u.1 2 X.%.;.;.;.*.$.$.3 1 1 u.u.u.u.u.u.",
"u.1 1 | +.| O.%.*.*.;.>.;.y 3 w u.u.u.u.u.1 y @.&.;.;.&.%.$.y < 1 u.u.u.u.u.u.u.",
"u.u.1 1 | | | | %.*.*.>.>.:.y 3 ' u.u.u.1 1 ] | -.;.*.$.%.| 1 1 u.u.u.u.u.u.u.u.",
"u.u.u.1 1 { | | | %.*.=.;.;.;.1 1 u.u.1 < r { @.*.*.%.&.+.1 1 1 u.u.u.u.u.u.u.u.",
"u.u.u.1 1 1 | | | +.%.*.*.=.;.8 1 u.u.1 < | { @.$.%.*.$.` 1 1 u.u.u.u.u.u.u.u.u.",
"u.u.u.u.1 1 2 { | +.| %.*.*.;.%.1 7 1 1 ] &.&.%.+.*.%.+.1 1 u.u.u.u.u.u.u.u.u.u.",
"u.u.u.u.u.1 1 8  .| +.+.*.*.:.=.1 1 1 1 +.=.*.%.%.%.| s 1 1 u.u.u.u.u.u.u.u.u.u.",
"u.u.u.u.u.u.1 1 p  .| +.+.*.;.;.w 1 1 $.$.*.%.&.%.+.X.1 1 u.u.u.u.u.u.u.u.u.u.u.",
"u.u.u.u.u.u.u.< < d  .| +.*.:.:.-.i i %.+.+.%.%.| [ s 1 1 u.u.u.u.u.u.u.u.u.u.u.",
"u.u.u.u.u.u.u.u.< 1  .[ | +.;.>.>.>.;.=.$.%.$.+.|  .r 1 u.u.u.u.u.u.u.u.u.u.u.u.",
"u.u.u.u.u.u.u.u.u.1 3 ] } | $.*.=.*.*.%.$.| } |  .f 1 < u.u.u.u.u.u.u.u.u.u.u.u.",
"u.u.u.u.u.u.u.u.u.1 1 s { | } | $.+.+.+.+.} }  . .1 1 < u.u.u.u.u.u.u.u.u.u.u.u.",
"u.u.u.u.u.u.u.u.u.u.1 1 d { } | | [ } } } } [ r 1 1 < u.u.u.u.u.u.u.u.u.u.u.u.u.",
"u.u.u.u.u.u.u.u.u.u.u.1 1 g [ [ [ [ } } ] u q 4 , @ o o u.u.u.u.u.u.u.u.u.u.u.u.",
"u.u.u.u.u.u.u.u.u.u.u.1 2 g [ [ ] 9 9 9 9 t k F : T ) ^ l o u.u.u.u.u.u.u.u.u.u.",
"u.u.u.u.u.u.u.u.u.u.u.u.1 g g u q q j <.0.q.t.y.r.9./ J H X u.u.u.u.u.u.u.u.u.u.",
"u.u.u.u.u.u.u.u.u.u.u.u.5 6 e t ,.y.y.y.y.y.y.y.y.Q H B P P o u.u.u.u.u.u.u.u.u.",
"u.u.u.u.u.u.u.u.u.u.u.X & * j e.y.y.y.y.y.y.y.r.J H B P ( ( o . u.u.u.u.u.u.u.u.",
"u.u.u.u.u.u.u.u.u.u.o o c G w.y.y.y.y.y.y.y.Q H H H ~ 4.( ( o o   u.u.u.u.u.u.u.",
"u.u.u.u.u.u.u.u.u.o o x H J 6.y.y.y.y.y.y.5.J H J y.y._ ( ( N o X u.u.u.u.u.u.u.",
"u.u.u.u.u.u.u.u.u.o o m H W 7.9.y.y.y.y.y.y.t.r.r.y.r.( ( ( ( v o O u.u.u.u.u.u.",
"u.u.u.u.u.u.u.u.u.o o n L ~ 8.9.y.y.y.y.y.y.r.y.r.y.9.( ( ( ( B # o u.u.u.u.u.u.",
"u.u.u.u.u.u.u.u.u.o o M ( 2.2.y.r.y.y.y.y.y.r.y.6.y.4.( ( ( ( B b o + u.u.u.u.u.",
"u.u.u.u.u.u.u.u.u.+ o m ( ( ( _ 9.r.y.r.r.r.~ H H 9.( ( ( ( S c z + X u.u.u.u.u.",
"u.u.u.u.u.u.u.u.u.+ o V ^ ( ( ( ( 2.3.7.5.H H H / ( ( ( ( Y C @ O + u.u.u.u.u.u.",
"u.u.u.u.u.u.u.u.u.@ o $ ; ( ( ( ( ( I H H H H I ( ( ( ( D ; $ $ + + u.u.u.u.u.u.",
"u.u.u.u.u.u.u.u.u.u.o o - Z ( ( I H H H H I ( ( ( ( ( D > $ $ o o u.u.u.u.u.u.u.",
"u.u.u.u.u.u.u.u.u.u.u.o o $ A ^ K H H L ( ( ( ( ( ( R $ $ $ + + u.u.u.u.u.u.u.u.",
"u.u.u.u.u.u.u.u.u.u.u.u.o o - - U E E E E I ( ( ( E % $ @ @ + u.u.u.u.u.u.u.u.u.",
"u.u.u.u.u.u.u.u.u.u.u.u.u.o + $ $ - = % % - - ; % % @ o + + u.u.u.u.u.u.u.u.u.u.",
"u.u.u.u.u.u.u.u.u.u.u.u.u.u.o o o o o o o o o o o o + + X u.u.u.u.u.u.u.u.u.u.u."
};
