/* XPM */
static char *result[] = {
/* columns rows colors chars-per-pixel */
"40 40 109 2 ",
"   c #071B1B",
".  c #0A1D1E",
"X  c #0D1E21",
"o  c #3E7847",
"O  c #3E7948",
"+  c #457352",
"@  c #4E7E5B",
"#  c #544674",
"$  c #574977",
"%  c #584778",
"&  c #565A72",
"*  c #5A5F75",
"=  c #57646C",
"-  c #537863",
";  c #2E9F29",
":  c #349432",
">  c #369A33",
",  c #2EA027",
"<  c #2FA328",
"1  c #31A52B",
"2  c #31AA2A",
"3  c #37B42F",
"4  c #39B82F",
"5  c #33A731",
"6  c #35AB33",
"7  c #39AE33",
"8  c #32A73F",
"9  c #34A93B",
"0  c #38AF3C",
"q  c #3CB434",
"w  c #3DBB34",
"e  c #3CB33B",
"r  c #42BD37",
"t  c #44BC3B",
"y  c #48BE3E",
"u  c #3FC234",
"i  c #43C237",
"p  c #45C339",
"a  c #49C43E",
"s  c #46C93B",
"d  c #4AC93D",
"f  c #2EA341",
"g  c #31A642",
"h  c #33A942",
"j  c #3FB740",
"k  c #4E8D55",
"l  c #4F8059",
"z  c #4F8D58",
"x  c #51805D",
"c  c #4F9056",
"v  c #509156",
"b  c #4BAF45",
"n  c #4BB344",
"m  c #54BA4B",
"M  c #4BC441",
"N  c #4ECA41",
"B  c #50CA43",
"V  c #5E2B8B",
"C  c #5C3683",
"Z  c #5B3E80",
"A  c #612A8E",
"S  c #65348E",
"D  c #603C88",
"F  c #622A91",
"G  c #672B98",
"H  c #692D9B",
"J  c #6F2DA2",
"K  c #7325AE",
"L  c #762BAE",
"P  c #7A3EAA",
"I  c #7A2BB4",
"U  c #5D4481",
"Y  c #8035B8",
"T  c #8438BD",
"R  c #8B4EBB",
"E  c #8E50BD",
"W  c #832BC3",
"Q  c #8A36C7",
"!  c #8B3EC3",
"~  c #8B35C8",
"^  c #903CCD",
"/  c #933CD0",
"(  c #8D44C3",
")  c #934FC6",
"_  c #9246CA",
"`  c #9554C6",
"'  c #9659C5",
"]  c #9D5ECD",
"[  c #9743D3",
"{  c #9B46D7",
"}  c #9B4AD4",
"|  c #9E4CD9",
" . c #9F53D6",
".. c #A254DB",
"X. c #A65BDC",
"o. c #9F6AC9",
"O. c #A26BCD",
"+. c #A570CE",
"@. c #AB64DE",
"#. c #AB75D4",
"$. c #B072DD",
"%. c #AF6CE0",
"&. c #B474E3",
"*. c #B77AE4",
"=. c #B97EE5",
"-. c #8C8D93",
";. c #959D95",
":. c #8CA18A",
">. c #BE86E7",
/* pixels */
"p i i i M u i i r p p i p p i a a i p i p p a i p i a i p p a p p p p p p p i p ",
"a a a M M n M M M a a r t a i p p a d a d a a a d d M d a d B d d d a p p p p p ",
"a a y a M M s M a M a a a a i a N d a a a d a a a a M d a a d B d s d d d d i i ",
"M a a r 4 p p M a a a a a d a a a a d a a a a a M a a a d d a B i 2 2 w s d p p ",
"M M p 2 2 < 4 M N a a a a s w w i i i s p a a a a a a a a a d d 3 < 2 2 r a i p ",
"M M s 2 2 < w s a a d a s i 2 2 2 4 w i i r i a a a a B a d a d w < 2 2 2 w p p ",
"p M p p 3 4 s M a d a a a t O + + + + + @ @ l x - v b d d d a d i , 2 2 2 2 p p ",
"M w M p p u u s d d a a a k F F A F F F F F A F F F z a d a a d s < < 2 2 2 p p ",
"u p M p u u s s i n v x U F F F F F F F F F F F F F F = @ v b a a 7 < 2 2 2 p p ",
"p p s p w 4 4 u u c $ A F F F ( ) ] O.+.+.+.+.+.O.F A A F Z v a a r < < 2 2 p p ",
"p p M w 2 2 2 > k * S F A H _  .@.$.=.>.>.>.>.>.>.O.A A F F D v b y 1 1 2 2 i p ",
"p p d 2 2 2 < o # F F F ! _  .@.&.=.>.>.>.>.>.>.>.>.#.O.' F F % z a y q 2 w i i ",
"p p w 2 2 : o & F A G { { ..@.&.=.>.>.>.>.>.>.>.>.>.>.=.&.E F F D k b a a a i p ",
"p p i 2 < o # G F G [ { ..@.&.*.>.>.>.>.>.>.>.>.>.>.>.>.=.$.R F F F k y y t s p ",
"p p p 2 < + C F H { { ..@.%.>.>.>.>.>.>.>.>.>.>.>.>.>.>.>.=.%.P F F @ a a y p i ",
"i p s 2 < @ V F ( { ..%.*.>.>.>.>.>.>.>.>.>.>.>.>.>.>.>.>.=.%.` F F - a p t p i ",
"i p a y k & A H ^ | X.%.=.>.>.>.>.>.>.>.>.>.>.>.>.>.>.>.>.>.$.] F F F z p p i p ",
"p i a a % A F I ^ | X.%.=.>.>.>.>.>.X . X   >.>..     . >.>.=.$.o.F F C p p i s ",
"p p a M A A G W ^ | X.%.=.>.>.>.>.>.        >.>.        >.>.>.=.%.` F F s s i i ",
"p a M a F F K W / | X.%.=.>.>.>.>.>.        >.>.        >.>.>.=.@.` F F s s i p ",
"p a a a F A K W / | X.%.=.>.>.>.>.>.. .   . >.>.X .     >.>.>.=.%.` F F d d p p ",
"p a a a F F K W / | X.%.=.>.>.>.>.>.>.>.>.>.>.>.>.>.>.>.>.>.>.=.%.` F F ;.M i i ",
"p a :.;.F F K W / | X.%.*.=.>.>.>.>.>.>.>.>.>.>.>.>.>.>.>.>.>.=.@.) F F ;.;.p p ",
"m ;.;.;.F F K W / | X.@.%.$.=.>.>.>.>.>.>.>.>.>.>.>.>.>.>.>.>.*.X.( F A ;.;.;.s ",
";.;.;.;.;.F G Y ~ / ..X.X.@.&.=.*.=.>.>.>.>.>.>.>.>.>.>.>.>.=.@.{ T F F ;.;.;.;.",
";.;.;.;.;.F F F Y ~ [ | | ..@.%.%.&.=.>.>.>.>.>.>.>.>.>.>.=.@.} ~ G F V ;.;.;.;.",
";.;.;.;.;.;.F F F L ~ / / [ ..X.X.@.&.=.=.=.=.=.=.=.=.$.$.X.{ Q K F V ;.;.;.;.;.",
";.;.;.;.;.;.-.A F F F F G J [ | | ..@.%.%.%.%.%.%.%.%.X._ G A A F F ;.;.-.;.;.;.",
"a ;.;.;.;.;.;.;.;.A F F A F F Y / / | .. . . . .......P A F F F F S ;.;.;.;.;.i ",
"p ;.;.;.;.;.;.;.;.;.;.;.;.F F F F G F A F F G G A A A F F ;.;.;.;.;.;.;.;.;.;.i ",
"p a ;.;.;.;.;.;.;.;.;.;.;.;.F F F F F F F F F F F F G F ;.;.;.;.;.;.;.;.;.;.a i ",
"p a y a ;.;.;.;.;.;.;.;.;.;.;.;.;.;.;.;.;.;.;.;.;.;.;.;.;.;.;.;.;.;.;.;.;.s s i ",
"p r t r t ;.;.;.;.;.;.;.;.;.;.;.;.;.;.;.;.;.;.;.;.;.;.;.;.;.;.;.;.;.;.;.a a a i ",
"p r 7 7 e e ;.;.;.;.;.;.;.;.;.;.;.;.;.;.;.;.;.;.;.;.;.;.;.;.;.;.;.;.a a y a a i ",
"r r 7 9 8 2 1 1 1 6 h g f f ; < 2 q r t t t n s p n t q 2 2 < 1 r a p a a M M i ",
"r t t 9 2 2 < 1 6 5 g f f f ; ; 2 6 7 0 e e e j j j 3 2 2 < 1 3 y a t t t a M i ",
"p p t t 1 1 1 0 e e h h 8 6 5 ; 1 6 8 g f f g g h h 9 2 6 3 r t r y t t t n a i ",
"p p y r 7 7 r r t e e e 7 q q < < 6 8 f f 8 g f f h 8 0 e a s n t t t t t t M p ",
"p p p y r t t y t t e e t t y r 7 e e 0 6 0 e e j j j n a a r t r t t t y t M p ",
"p p p p r p r p i r p r i p p p i i i i r i i i u p w p r i i i i p i p p p i i "
};
