/* XPM */
static char *result[] = {
/* columns rows colors chars-per-pixel */
"40 40 141 2 ",
"   c #071B1B",
".  c #081B1C",
"X  c #0A1D1E",
"o  c #0B1D1F",
"O  c #0C1E21",
"+  c #0E1F22",
"@  c #5B2D84",
"#  c #5A2C85",
"$  c #5B2D85",
"%  c #5E288B",
"&  c #5E2C89",
"*  c #5F2C8B",
"=  c #5E2B8C",
"-  c #602A8D",
";  c #602B8E",
":  c #612A8F",
">  c #65348E",
",  c #612990",
"<  c #622991",
"1  c #612A90",
"2  c #612A91",
"3  c #622A90",
"4  c #622A91",
"5  c #622B91",
"6  c #632B91",
"7  c #632993",
"8  c #622A92",
"9  c #632A92",
"0  c #632B92",
"q  c #632A93",
"w  c #642A93",
"e  c #642B93",
"r  c #632D90",
"t  c #632C91",
"y  c #632E90",
"u  c #642D91",
"i  c #642C92",
"p  c #652C92",
"a  c #642D92",
"s  c #652D93",
"d  c #642A94",
"f  c #642B94",
"g  c #652B94",
"h  c #652B95",
"j  c #652996",
"k  c #662996",
"l  c #662A97",
"z  c #662C95",
"x  c #662C96",
"c  c #672B98",
"v  c #682A9B",
"b  c #6A2F99",
"n  c #692D9A",
"m  c #692C9B",
"M  c #6B2E9C",
"N  c #6F2DA2",
"B  c #7325AE",
"V  c #762BAE",
"C  c #7636A9",
"Z  c #7A3EAA",
"A  c #782BB2",
"S  c #782CB1",
"D  c #7B2BB6",
"F  c #8035B8",
"G  c #8438BD",
"H  c #8B4EBB",
"J  c #8E50BD",
"K  c #832BC3",
"L  c #8A36C7",
"P  c #8A3EC2",
"I  c #8C3DC6",
"U  c #8A33C8",
"Y  c #8B36C8",
"T  c #8B36C9",
"R  c #903CCD",
"E  c #933CD0",
"W  c #8D44C3",
"Q  c #934FC6",
"!  c #9145C9",
"~  c #9447CC",
"^  c #9151C1",
"/  c #9655C7",
"(  c #9659C5",
")  c #9A5CC9",
"_  c #9F5FCF",
"`  c #9642D2",
"'  c #9744D2",
"]  c #9744D3",
"[  c #9B46D7",
"{  c #9948D3",
"}  c #9B4AD5",
"|  c #9C4DD4",
" . c #9D4AD8",
".. c #9E4CD9",
"X. c #9F53D6",
"o. c #9F54D6",
"O. c #A153D9",
"+. c #A254DB",
"@. c #A355DB",
"#. c #A65ADC",
"$. c #A65BDC",
"%. c #9F6AC9",
"&. c #A169CC",
"*. c #A56FCE",
"=. c #A570CE",
"-. c #A761D9",
";. c #A660DA",
":. c #AA61DE",
">. c #AB64DE",
",. c #AB65DF",
"<. c #AC67DE",
"1. c #AC66DF",
"2. c #AB75D4",
"3. c #B073DD",
"4. c #B071DE",
"5. c #AE6AE0",
"6. c #AF6CE0",
"7. c #B372E2",
"8. c #B475E3",
"9. c #B577E3",
"0. c #B677E3",
"q. c #B679E3",
"w. c #B77AE4",
"e. c #B87BE4",
"r. c #B97DE5",
"t. c #BA7FE5",
"y. c #918999",
"u. c #989799",
"i. c gray60",
"p. c #99999B",
"a. c #9A9A9A",
"s. c #9B9B9B",
"d. c #B880E1",
"f. c #BC82E6",
"g. c #BC85E5",
"h. c #BD84E6",
"j. c #BD85E6",
"k. c #BD86E6",
"l. c #BE86E6",
"z. c #BE86E7",
"x. c None",
/* pixels */
"x.x.x.x.x.x.x.x.x.x.x.x.x.x.x.x.x.x.x.x.x.x.x.x.x.x.x.x.x.x.x.x.x.x.x.x.x.x.x.x.",
"x.x.x.x.x.x.x.x.x.x.x.x.x.x.x.x.x.x.x.x.x.x.x.x.x.x.x.x.x.x.x.x.x.x.x.x.x.x.x.x.",
"x.x.x.x.x.x.x.x.x.x.x.x.x.x.x.x.x.x.x.x.x.x.x.x.x.x.x.x.x.x.x.x.x.x.x.x.x.x.x.x.",
"x.x.x.x.x.x.x.x.x.x.x.x.x.x.x.x.x.x.x.x.x.x.x.x.x.x.x.x.x.x.x.x.x.x.x.x.x.x.x.x.",
"x.x.x.x.x.x.x.x.x.x.x.x.x.x.x.x.x.x.x.x.x.x.x.x.x.x.x.x.x.x.x.x.x.x.x.x.x.x.x.x.",
"x.x.x.x.x.x.x.x.x.x.x.x.x.x.x.x.x.x.x.x.x.x.x.x.x.x.x.x.x.x.x.x.x.x.x.x.x.x.x.x.",
"x.x.x.x.x.x.x.x.x.x.x.x.x.x.x.x.x.x.x.x.x.x.x.x.x.x.x.x.x.x.x.x.x.x.x.x.x.x.x.x.",
"x.x.x.x.x.x.x.x.x.x.x.x.x.x.5 2 4 4 4 4 4 4 4 4 3 4 x.x.x.x.x.x.x.x.x.x.x.x.x.x.",
"x.x.x.x.x.x.x.x.x.x.x.x.: 4 4 4 4 4 4 4 4 4 4 6 4 4 4 x.x.x.x.x.x.x.x.x.x.x.x.x.",
"x.x.x.x.x.x.x.x.x.x.@ ; 4 4 g W Q ) &.=.=.=.=.=.%.4 4 4 4 & x.x.x.x.x.x.x.x.x.x.",
"x.x.x.x.x.x.x.x.x.x.5 4 4 b ! +.>.7.t.z.z.z.z.z.z.*.a 4 4 4 y x.x.x.x.x.x.x.x.x.",
"x.x.x.x.x.x.x.x.@ 6 4 e P ! o.>.8.t.h.z.z.z.z.z.z.d.2.&.( 4 4 $ x.x.x.x.x.x.x.x.",
"x.x.x.x.x.x.x.x.6 4 z [  .+.>.7.t.z.z.z.z.z.z.z.z.z.z.t.7.J 4 4 r x.x.x.x.x.x.x.",
"x.x.x.x.x.x.@ p 9 x `  .@.>.8.t.h.z.z.z.z.z.z.z.z.z.z.h.t.3.H 4 4 3 x.x.x.x.x.x.",
"x.x.x.x.x.x.# 0 M [  .+.>.7.t.z.z.z.z.z.z.z.z.z.z.z.z.z.z.r.6.Z 4 4 x.x.x.x.x.x.",
"x.x.x.x.x.x.= i P  .@.>.8.t.h.z.z.z.z.z.z.z.z.z.z.z.z.z.z.r.6./ 4 4 x.x.x.x.x.x.",
"x.x.x.x.x.x.3 n I ..$.6.r.z.z.z.z.z.z.z.z.z.z.l.z.z.z.z.k.j.7._ s 4 5 x.x.x.x.x.",
"x.x.x.x.@ 4 7 S R ..$.6.r.z.z.z.z.z.O   O   z.z.o     . z.z.t.3._ 8 4 * x.x.x.x.",
"x.x.x.x.- 4 j K E ..$.6.r.z.z.z.z.z.        z.z.        z.z.z.r.6.^ 4 4 x.x.x.x.",
"x.x.x.x.4 4 B K E ..$.6.r.z.z.z.z.k.        z.z.        z.z.z.r.6./ 4 4 x.x.x.x.",
"x.x.x.x.4 4 B K E ..$.6.r.z.z.z.z.j.o     X z.z.+       g.z.z.r.6./ 4 4 x.x.x.x.",
"x.x.x.x.4 4 B K E ..$.6.r.z.z.z.z.z.z.z.z.z.z.z.z.z.z.z.z.z.z.r.6./ 4 4 a.x.x.x.",
"x.x.a.s.4 4 B K E ..$.5.9.t.h.z.z.z.z.z.z.z.z.z.z.z.z.z.z.z.z.e.1.Q 4 4 a.s.x.x.",
"x.s.s.s.u 4 B K E ..$.,.5.7.t.z.z.z.z.z.z.z.z.z.z.z.z.z.z.z.z.0.#.W 4 4 s.s.s.x.",
"a.s.s.s.y.4 k D Y ] O.$.$.>.8.r.r.t.h.z.z.z.z.z.z.z.z.z.z.f.w.<.} G 4 1 s.s.s.a.",
"s.a.s.s.s.4 4 9 D U ] ....+.>.6.6.7.t.z.z.z.z.z.z.z.z.z.z.w.:.} T v 4 - s.s.s.s.",
"s.s.s.s.s.s.3 4 4 V L E E ] O.$.$.>.8.r.r.r.r.r.r.r.r.q.4.-.{ Y A 4 4 s.s.s.s.s.",
"s.s.s.s.s.s.s.: 4 4 4 8 l N ' ....+.>.6.6.6.6.6.6.6.6.;.~ f 4 4 4 4 i.s.s.s.s.s.",
"x.s.s.s.s.s.s.s.u.% 8 4 4 4 4 F E ` | X.X.X.X.X.X.X.X.C 8 4 4 4 4 > s.s.s.s.s.x.",
"x.i.s.s.s.s.s.s.s.s.s.s.s.3 4 4 4 d d d w h c m h 9 q 4 t s.s.s.s.s.s.s.s.s.s.x.",
"x.x.s.s.s.s.s.s.s.s.s.s.s.p.4 4 4 4 4 4 4 4 4 8 4 4 < , s.s.s.s.s.s.s.s.s.s.x.x.",
"x.x.x.x.s.s.s.s.s.s.s.s.s.s.s.s.s.s.s.s.s.s.s.s.s.s.s.s.s.s.s.s.s.s.s.s.a.x.x.x.",
"x.x.x.x.x.s.s.s.s.s.s.s.s.s.s.s.s.s.s.s.s.s.s.s.s.s.s.s.s.s.s.s.s.s.s.s.x.x.x.x.",
"x.x.x.x.x.x.s.s.s.s.s.s.s.s.s.s.s.s.s.s.s.s.s.s.s.s.s.s.s.s.s.s.s.s.x.x.x.x.x.x.",
"x.x.x.x.x.x.x.x.x.x.x.x.x.x.x.x.x.x.x.x.x.x.x.x.x.x.x.x.x.x.x.x.x.x.x.x.x.x.x.x.",
"x.x.x.x.x.x.x.x.x.x.x.x.x.x.x.x.x.x.x.x.x.x.x.x.x.x.x.x.x.x.x.x.x.x.x.x.x.x.x.x.",
"x.x.x.x.x.x.x.x.x.x.x.x.x.x.x.x.x.x.x.x.x.x.x.x.x.x.x.x.x.x.x.x.x.x.x.x.x.x.x.x.",
"x.x.x.x.x.x.x.x.x.x.x.x.x.x.x.x.x.x.x.x.x.x.x.x.x.x.x.x.x.x.x.x.x.x.x.x.x.x.x.x.",
"x.x.x.x.x.x.x.x.x.x.x.x.x.x.x.x.x.x.x.x.x.x.x.x.x.x.x.x.x.x.x.x.x.x.x.x.x.x.x.x.",
"x.x.x.x.x.x.x.x.x.x.x.x.x.x.x.x.x.x.x.x.x.x.x.x.x.x.x.x.x.x.x.x.x.x.x.x.x.x.x.x."
};
