/* XPM */
static char *result[] = {
/* columns rows colors chars-per-pixel */
"40 40 234 2 ",
"   c #4B3B0D",
".  c #57350E",
"X  c #5D3314",
"o  c #553B12",
"O  c #5D3B15",
"+  c #553612",
"@  c #533610",
"#  c #69350D",
"$  c #662C1B",
"%  c #682919",
"&  c #7E2717",
"*  c #613313",
"=  c #6B3B16",
"-  c #6C331D",
";  c #643C1B",
":  c #6C3C1C",
">  c #653718",
",  c #753818",
"<  c #6F2F25",
"1  c #673721",
"2  c #763926",
"3  c #3B5A0C",
"4  c #3E5A18",
"5  c #386E10",
"6  c #367614",
"7  c #494C0A",
"8  c #4A4309",
"9  c #54420D",
"0  c #5C4815",
"q  c #584717",
"w  c #495612",
"e  c #4B5716",
"r  c #5B591C",
"t  c #575618",
"y  c #49560B",
"u  c #644415",
"i  c #6A441B",
"p  c #624D1C",
"a  c #6C4A1D",
"s  c #66451C",
"d  c #73451C",
"f  c #734518",
"g  c #62531A",
"h  c #6B521C",
"j  c #625E1E",
"k  c #416E0F",
"l  c #4C641B",
"z  c #466A15",
"x  c #57651A",
"c  c #55761C",
"v  c #487717",
"b  c #5E5920",
"n  c #6E4123",
"m  c #6D4C24",
"M  c #644B22",
"N  c #734A25",
"B  c #794728",
"V  c #665420",
"C  c #6C5424",
"Z  c #6A5A27",
"A  c #765122",
"S  c #78582B",
"D  c #6B5E31",
"F  c #715C31",
"G  c #785934",
"H  c #4C6A24",
"J  c #456D22",
"K  c #5E6525",
"L  c #5C6B20",
"P  c #5D672A",
"I  c #4E772A",
"U  c #5A7629",
"Y  c #5D7D32",
"T  c #646325",
"R  c #646A2C",
"E  c #68682A",
"W  c #74642A",
"Q  c #66792B",
"!  c #676933",
"~  c #7A6334",
"^  c #627A37",
"/  c #737434",
"(  c #767A3A",
")  c #757329",
"_  c #882B1B",
"`  c #88331E",
"'  c #8D2B20",
"]  c #893524",
"[  c #943729",
"{  c #854729",
"}  c #8A562F",
"|  c #845C2B",
" . c #86542F",
".. c #885732",
"X. c #915330",
"o. c #8B4B32",
"O. c #A24734",
"+. c #837131",
"@. c #866738",
"#. c #31810E",
"$. c #348111",
"%. c #2BA41F",
"&. c #27A11F",
"*. c #279F22",
"=. c #2F9F24",
"-. c #359B2B",
";. c #389B27",
":. c #3C9C37",
">. c #26A221",
",. c #2CA423",
"<. c #2DAB25",
"1. c #2EA42A",
"2. c #2EAA2B",
"3. c #27A92B",
"4. c #31AC26",
"5. c #33A42B",
"6. c #39A42D",
"7. c #33AB2B",
"8. c #39AB2D",
"9. c #30A725",
"0. c #23B12D",
"q. c #2BB12B",
"w. c #29B726",
"e. c #35B22C",
"r. c #3AB52F",
"t. c #36B629",
"y. c #26A831",
"u. c #2CAC38",
"i. c #2DA734",
"p. c #37AB32",
"a. c #3CAD33",
"s. c #35A639",
"d. c #3CAE39",
"f. c #37A437",
"g. c #2EB336",
"h. c #33B334",
"j. c #3BB333",
"k. c #3DBB34",
"l. c #3DB43A",
"z. c #3BBD3A",
"x. c #36B83A",
"c. c #4B8524",
"v. c #4A802C",
"b. c #56872B",
"n. c #5C8735",
"m. c #4C9A35",
"M. c #599537",
"N. c #4C9A2B",
"B. c #6F8131",
"V. c #6B863A",
"C. c #748436",
"Z. c #79863D",
"A. c #69943C",
"S. c #67993A",
"D. c #72943E",
"F. c #40B42F",
"G. c #43A33A",
"H. c #49A738",
"J. c #53AB3B",
"K. c #5CA83C",
"L. c #42B334",
"P. c #42BB35",
"I. c #43B53B",
"U. c #43BD3B",
"Y. c #4CBD3C",
"T. c #53B53F",
"R. c #52BD3D",
"E. c #5BBB3E",
"W. c #40A629",
"Q. c #65A33D",
"!. c #66AE3E",
"~. c #64B83E",
"^. c #34CC2D",
"/. c #2BD52D",
"(. c #31D32F",
"). c #22CA35",
"_. c #3DC335",
"`. c #34CB33",
"'. c #3BCA35",
"]. c #3DC53B",
"[. c #3DCA3B",
"{. c #36C836",
"}. c #2BD637",
"|. c #3CD03B",
" X c #33D33D",
".X c #43C335",
"XX c #43CA37",
"oX c #45C23B",
"OX c #4AC33D",
"+X c #42CA3C",
"@X c #49C93D",
"#X c #4BC337",
"$X c #51C43D",
"%X c #449F42",
"&X c #539040",
"*X c #658941",
"=X c #689842",
"-X c #799B48",
";X c #49AC44",
":X c #5CA944",
">X c #45BD41",
",X c #4BBE42",
"<X c #4EBC49",
"1X c #53B443",
"2X c #5CB645",
"3X c #53BD43",
"4X c #5ABC45",
"5X c #53BD4A",
"6X c #5CBA4B",
"7X c #5AB249",
"8X c #6BAC45",
"9X c #6DAE4B",
"0X c #64A844",
"qX c #73A444",
"wX c #73AB4B",
"eX c #76A74A",
"rX c #63B243",
"tX c #63B54A",
"yX c #6BB24C",
"uX c #67B748",
"iX c #72B24E",
"pX c #78A852",
"aX c #3BCB43",
"sX c #39CA44",
"dX c #45C442",
"fX c #4BC442",
"gX c #44C943",
"hX c #4BC941",
"jX c #4FC148",
"kX c #40C248",
"lX c #52C242",
"zX c #55C544",
"xX c #87903F",
"cX c #81A849",
/* pixels */
"OXU.@XOXfXY.dXOXU.OXOX'._.T.D.h W.~.R././.0XZ E 7X(.^.Y.Y.[.{.OXOX.X.XXX.XoX.XXX",
"gXOXOX.XfXU.dXOXfX,XOXk.[.E.C.u 5 eXrXXX'.9Xu s iX+XXXzXzXhX@XzX@XhXdXOXoX.XP.XX",
"].fXY.OX@XdXU.dXfXY.$XoX[.lXQ d v pXtX+X+XqXn N iX[.'.lX4X@X@XzXdXhX@XoXhX@XOXoX",
"kXOXY.OXk.U.OXoX+XfX#XoX|.,XY d 6 pX6X}.}.:Xn s rX/.|.4X4X+XXX$XoX,.4.oX@XoX.X.X",
"OXY..X4.4.%.j.XXXXfXzXoX[.lXL B 6 qXyX{.`.9Xd m rX(.|.1XlX[.|.zX7.<.2.,.U.@XoX.X",
"OX@XOX4.<.%.P.hXhXY.$XOX@XK.j { b / ( =XD.*Xd N Z.J.hX@XoX+X+XgXP.*.4.<.4.k.P.oX",
"dXU.@XU.4.r.OX$X$X$XzX#X4Xv h ` 2 B B o.X.X.} } a Q E.+XXX$XOX@X>X2.4.7.<.4.oXoX",
"oXOXOXXX.XoXhXOX$X$XOX$X$XM.0 _ o o X O # , , f g b.zX@X#X#XlXhXfX9.,.7.7.<.oXoX",
"oX.XOX.XoXoXoX].'.@XOXhX].6XT [ 5 Y U 6 $.Q = f eX$XoX<XlXXX+X,XfXl.,.7.4.2.oXOX",
"U.OXoXoX_.r.h.{.].hXOX@XaX5XE ] $.b.N.<.w.wXi a Q._.w.<X,X[.].jXfXI.*.,.7.4.U.oX",
"oX.X@XP.2.<.4.<.k.@XlX@XdXtXC ' Q V.V.0X0X-Xs a C.N.<.h.U.@X@XU.fX>X7.,.4.4.oX.X",
"oXoX@X4.<.4.,.%.Y.fX@X@X,Xc.a [ a N N G ~ ~ S  .C l 5.w.<.Y.R.OX,XfXdXj.7.j.oXoX",
"oXoXU.<.<.4.,.j.Y.OXdX@XfXc.q &   + X 1 X X 1 > 0 I -.<.4.8.F..XfXU.fXU.oXoXoXoX",
"Y.oX_.<.,.=.a.OX@XdXhX].+XyXq & &X^ ! H J T * 2 ^ 7Xp.=.5.4.<.#XOXfXU.OXOXOXoXoX",
"oXU.OX4.>.p.,XY.dXhXfX].gXJ.b _ I.tX7X,XY.pXs a Q 3XdX-.5.>.w.#XOXfXOXU.oXP.oX.X",
"XXU.#X9.2.,X,XjXlXfXOXXX[.H.b ' .X#XXXsX).H.t f Q 2X,X5Xa.2.U.#XfXU.OX@XoXoXoXoX",
".XOXfXU.oXOXjXdXgX,XR.OX[.6.t _ 9X9X8XeXC./ V { O.N tXsXsX3XR..XdXdXOXdXoXoXoX.X",
"U.U.@X@XOXlXdXdXdXfXY.Y.3XM.h ] ! K T x K T M , d y 2XaXsX,XY.XXOXdXU.OXoXU.oX.X",
"oXoX@XfXY.$XY.dXOXOX@XR.Q.7 B 2 ; $ O   8   X = g A.4XOXjXU.fXfXoXoX@XoXhXoXoX.X",
"oX@X@X$XOX$X@XOXfXoXoX3XQ.7 > % 9 0 b U Y R * i T !.E.#XdX].fXjXOXOXOXoXoX@X+XoX",
"oXOXY.@XhXOXOX7.7.fXOXfX4X=XN ] rX8X9X1X>Xb.o d E rX3XfXoX+XoXlX@XU.oX@XOXhX.XoX",
"_.@XY.fXgXdXdX7.2.l.Y.OXjXM.V ] ^.XXaX}.}.1X8 > L uX,X,XOX+XoXOX@XoXOXoXk.@X.XP.",
"[.dX$XfXdXdX>Xp.,.5.3XOXR.=XS ` XX#XdX}.).6Xq : E rX>XjXOX#X.X#XOXdXoXt.%.r..XXX",
"oXoXOXfXOXfXa.5.=.8.,XR.N.y a , U V.-X9XtXpXV ; W wX5XdX,XOX#XOXoXOXU.4.<.%.U.oX",
"OXoXoXfXOXY.4.,.,.z.OX4X5 8 X % * i N B | @.s : ..Z.4XsXgXY.OXU.dXl.4.4.,.,.U.oX",
"U..X@X@XOXP.4.%.>.dXdX3XqX/ : %   8 * # , { : - } r 2XsXsX1XY.'.>XI.p.2.,.,.U.OX",
"R.#XOXhXoXP.%.%.3.].dXY.9XV.S < m.M.n.c t 9 + * i K 2XgXgXjX3X.X>Xp.5.*.>.dXU.oX",
"P.OXdXfXOX4.,.,.>XdXOXR.rXV.~ B sXgX@X3X1XI e + g A.E.oXoX,XY.oXa.2.p.,.,.fXU.oX",
"oXoXfXfXj.,.*.p.jXjXdX$X!.B.W , `.+X].aXaX-.H M E -X3XoXoXfXfXU.7.p.,.,.U.OX@XXX",
"XXdXfXU.U.h.U.<X3X,XdXR.wX) d : R.4X2X3XfXN.H q W -X4XdXdXY.OXz.4.,.,.<.oXU.U.oX",
"oXOXU.U.U.XXU.,XY.gX+XE.cX+.N n eXeXwXwXqXA.E a | xXrX,XOX$XP.@XU.P.r.U.P.@XoXoX",
"U.OXOXOX+XoXY.Y.4.k.+XE.c.h : : z z l x c E F B | ) c.5XlX#XXX[.OX@XoXU..XOXoX.X",
"].U.I.L.Y.k.e.p.1.g.kX7X4 O * . - % - $ - - < < $ 0 z 2XY.OXr.t.OXhX@XOXOXOXoXoX",
"oXz.a.L.j.j.7.1.1.x.x.;X^ F O q y e e e e e q X : q M.,XfX7.7.<..XOXOXOXOXOXhXoX",
"aXU.a.p.8.7.3.1.i.u.g.m.*XF M D 6.H.H.1X1X:XV.M | ( :Xx.2.6.5.4.U.OXU.Y.oXoX@XoX",
"oXU.I.6.5.2.1.5.d.i.y.:.*X! q ! q.h.p.x.g.;XI m ..C.G.0.2.-.5.h.U.OXU.U.oXU.OXU.",
"oXdXI.I.8.2.p.d.;Xx.h.f.&XR b Y y.i.s.s.u.:.4 ; ..! m.0.u.p.I.z.U.U.U.P.U.oXOXoX",
"].oXU.P.j.7.a.>Xl.l.x.G.=XH l Y i.s.f.f.s.;X4 O { R ;Xq.z.Y.Y.gXP.U.U.k.z.U.oXoX",
".X.XU.Y.P.P.P.Y.>X>Xx.I.0X3 4 -Xh.j.;Xl.s.m.J 0 M x J.].U.Y.3Xk.U.U.z.U.U.U.oXoX",
".X.XoXOXOX.XOX,X,XU.OX3X0XI z 9XgXoX].jXsX<X&XT C Z.tX[.+XY.Y.oXoXoXU.oXoXOXoXU."
};
