/* XPM */
static char *result[] = {
/* columns rows colors chars-per-pixel */
"40 40 45 1 ",
"  c #5C2712",
". c #5E2C16",
"X c #612E17",
"o c #612F18",
"O c #633017",
"+ c #6C3311",
"@ c #653219",
"# c #6B351A",
"$ c #6E381C",
"% c #71361A",
"& c #733A1D",
"* c #7A3D1E",
"= c #6E3620",
"- c #6E3A23",
"; c #753D22",
": c #7B3F21",
"> c #773F28",
", c #7E401F",
"< c #774122",
"1 c #7D4222",
"2 c #7C462B",
"3 c #7E4A33",
"4 c #7F513A",
"5 c #803F1F",
"6 c #80401F",
"7 c #824423",
"8 c #844A26",
"9 c #894A27",
"0 c #80462B",
"q c #854B29",
"w c #8D4D29",
"e c #914F29",
"r c #8E522C",
"t c #93542D",
"y c #8F5430",
"u c #88543A",
"i c #905330",
"p c #975B31",
"a c #985933",
"s c #955E3A",
"d c #95623E",
"f c #9A623B",
"g c #925C41",
"h c #9C684D",
"j c None",
/* pixels */
"jjjjjjjjjjjjjjj>jjjjjj#2jjjjjjjjjjjjjjjj",
"jjjjjjjjjjjjjjj*%jjjjj%*jjjjjjjjjjjjjjjj",
"jjjjjjjjjjjjjjq5>jjjjj;1jjjjjjjjjjjjjjjj",
"jjjjjjjjjjjjjj+7#jjjjj**jjjjjjjjjjjjjjjj",
"jjjjjjjjjjjjjj&7&jjjjj**jjjjjjjjjjjjjjjj",
"jjjjjjjjjjjjjj071ughfd27jjjjjjjjjjjjjjjj",
"jjjjjjjjjjjjj&7*:179tate1%jjjjjjjjjjjjjj",
"jjjjjjjjjjjjjj&@@o@@@%$&;jjjjjjjjjjjjjjj",
"jjjjjjjjjjjjjj77jjjjjj#,jjjjjjjjjjjjjjjj",
"jjjjjjjjjjjjjj7*jjjjjj#:jjjjjjjjjjjjjjjj",
"jjjjjjjjjjjjjj7&3jjjjj&*jjjjjjjjjjjjjjjj",
"jjjjjjjjjjjjj>571108itrt7$jjjjjjjjjjjjjj",
"jjjjjjjjjjjjj&%ooooX@#@#;jjjjjjjjjjjjjjj",
"jjjjjjjjjjjjjj5#jj.....&;jjjjjjjjjjjjjjj",
"jjjjjjjjjjjjjj7#jjjjjjX58jjjjjjjjjjjjjjj",
"jjjjjjjjjjjjjj7%jjjjjj#78jjjjjjjjjjjjjjj",
"jjjjjjjjjjjjjj7#jjjjjj17r*jjjjjjjjjjjjjj",
"jjjjjjjjjjjjjj7*7799w8-&<&jjjjjjjjjjjjjj",
"jjjjjjjjjjjjj&1*%@@@OOo@,jjjjjjjjjjjjjjj",
"jjjjjjjjjjjjj#OXX.o@jjX%qjjjjjjjjjjjjjjj",
"jjjjjjjjjjjjjj1;jjjjjjo:rjjjjjjjjjjjjjjj",
"jjjjjjjjjjjjjj8%jjjjjj.$9jjjjjjjjjjjjjjj",
"jjjjjjjjjjjjjjw$jjjjjjo$ijjjjjjjjjjjjjjj",
"jjjjjjjjjjjjj;7#8jjjjj.$tjjjjjjjjjjjjjjj",
"jjjjjjjjjjjj@@X.O&79ia$$tjjjjjjjjjjjjjjj",
"jjjjjjjjjjjjjr&.X.O@$7$$t<jjjjjjjjjjjjjj",
"jjjjjjjjjjjjjt9@jjj.oOXO&;jjjjjjjjjjjjjj",
"jjjjjjjjjjjjjfp#jjjjjj.@<jjjjjjjjjjjjjjj",
"jjjjjjjjjjjjjpr@jjjjjjj;tjjjjjjjjjjjjjjj",
"jjjjjjjjjjjjjt7Ojjjjjjj&rjjjjjjjjjjjjjjj",
"jjjjjjjjjjjjjf1@jjjjjjj1ajjjjjjjjjjjjjjj",
"jjjjjjjjjjjj27&O7778rpq7tr4jjjjjjjjjjjjj",
"jjjjjjjjjjjj;$OXXOXX@#@@#$-jjjjjjjjjjjjj",
"jjjjjjjjjjjjj7@o .X.XOXO#-jjjjjjjjjjjjjj",
"jjjjjjjjjjjjjr<jjjjjjjj*t8jjjjjjjjjjjjjj",
"jjjjjjjjjjjjjt<jjjjjjjj;tsjjjjjjjjjjjjjj",
"jjjjjjjjjjjjj91jjjjjjj.@t8jjjjjjjjjjjjjj",
"jjjjjjjjjjjjj71jjjjjjj.o9qjjjjjjjjjjjjjj",
"jjjjjjjjjjjjj%<jjjjjjj.@6#jjjjjjjjjjjjjj",
"jjjjjjjjjjjjj=<jjjjjjjj=:jjjjjjjjjjjjjjj"
};
