/* XPM */
static char *result[] = {
/* columns rows colors chars-per-pixel */
"40 40 136 2 ",
"   c gray6",
".  c #101010",
"X  c #1B1315",
"o  c #1E171A",
"O  c #240312",
"+  c #2A0414",
"@  c #260F17",
"#  c #2C0E1A",
"$  c #330617",
"%  c #390719",
"&  c #3D081A",
"*  c #241B1B",
"=  c #2A1C1D",
"-  c #3B161E",
";  c #321B1E",
":  c #28221E",
">  c #2A2828",
",  c #302126",
"<  c #322926",
"1  c #332429",
"2  c #3D232A",
"3  c #322B2B",
"4  c #3D3432",
"5  c #44091C",
"6  c #490A1E",
"7  c #500E1F",
"8  c #41101E",
"9  c #4B0E21",
"0  c #520F20",
"q  c #441220",
"w  c #4C1424",
"e  c #4C1927",
"r  c #4E1929",
"t  c #511222",
"y  c #5E1522",
"u  c #5F1D28",
"i  c #601622",
"p  c #641923",
"a  c #6B1D24",
"s  c #402421",
"d  c #44242B",
"f  c #4D262E",
"g  c #522326",
"h  c #492D30",
"j  c #502931",
"k  c #423532",
"l  c #433C35",
"z  c #493D38",
"x  c #5D3C36",
"c  c #523C3E",
"v  c #662326",
"b  c #65232C",
"n  c #6D2529",
"m  c #6A282D",
"M  c #762227",
"N  c #792427",
"B  c #702927",
"V  c #7E2728",
"C  c #7F2E2B",
"Z  c #7E312F",
"A  c #6B2930",
"S  c #663B30",
"D  c #643A38",
"F  c #763634",
"G  c #7B3333",
"H  c #7B3834",
"J  c #4C433C",
"K  c #55443F",
"L  c #6A403A",
"P  c #663844",
"I  c #4C4545",
"U  c #5B4245",
"Y  c #534941",
"T  c #594941",
"R  c #544B4B",
"E  c #5B4E4A",
"W  c #5C5047",
"Q  c #595048",
"!  c #5C5152",
"~  c #634246",
"^  c #7D4343",
"/  c #784C40",
"(  c #6B5146",
")  c #61544E",
"_  c #7D5245",
"`  c #6B555A",
"'  c #645F5F",
"]  c #6A5E5F",
"[  c #71585D",
"{  c #6D5F61",
"}  c #775B61",
"|  c #756266",
" . c #7B6569",
".. c #7D7878",
"X. c #852B2A",
"o. c #882E2C",
"O. c #80312F",
"+. c #8C332F",
"@. c #8D3530",
"#. c #98453A",
"$. c #924A3F",
"%. c #9C4B3D",
"&. c #9D4D40",
"*. c #855244",
"=. c #8C5244",
"-. c #965243",
";. c #9E5342",
":. c #A25342",
">. c #A65945",
",. c #AE674B",
"<. c #AE684B",
"1. c #A36355",
"2. c #87666B",
"3. c #8F6E73",
"4. c #906F73",
"5. c #847172",
"6. c #8D7374",
"7. c #8D7A7E",
"8. c #907174",
"9. c #947579",
"0. c #937D7D",
"q. c #987B7E",
"w. c #A57269",
"e. c #957F82",
"r. c #9A7D80",
"t. c #948485",
"y. c #9D8385",
"u. c #9B878C",
"i. c #9C888D",
"p. c #A98780",
"a. c #A58D8D",
"s. c #A88F8E",
"d. c #A79090",
"f. c #AA9393",
"g. c #AEA6A6",
"h. c None",
/* pixels */
"h.h.h.h.h.h.h.h.h.h.h.h.h.h.h.h.h.h.y X.X.#.:.:.:.:.h.h.h.h.h.h.h.h.h.h.h.h.h.h.",
"h.h.h.h.h.h.h.h.h.h.h.h.h.h.h.h.6 6 7 p X.@.#.:.:.:.:.h.h.h.h.h.h.h.h.h.h.h.h.h.",
"h.h.h.h.h.h.h.h.h.h.h.h.h.h.h.h.5 6 0 p X.X.@.#.:.:.:.:.h.h.h.h.h.h.h.h.h.h.h.h.",
"h.h.h.h.h.h.h.h.h.h.h.h.h.h.h.O 5 6 X.X.X.X.X.o.%.%.:.>.h.h.h.h.h.h.h.h.h.h.h.h.",
"h.h.h.h.h.h.h.h.h.h.h.h.h.h.h.O 5 V X.X.X.X.X.X.X.X.%.,.,.h.h.h.h.h.h.h.h.h.h.h.",
"h.h.h.h.h.h.h.h.h.h.h.h.h.h.O O p X.X.X.x Z o.H s 2 g H <.h.h.h.h.h.h.h.h.h.h.h.",
"h.h.h.h.h.h.h.h.h.h.h.h.h.h.+ % y v B l W ) f.f.0.< - m <.h.h.h.h.h.h.h.h.h.h.h.",
"h.h.h.h.h.h.h.h.h.h.h.h.h.O $ 6 & ; l 6.6.f.f.f.s.a.- m <.h.h.h.h.h.h.h.h.h.h.h.",
"h.h.h.h.h.h.h.h.h.h.h.h.O O 5 5 = 4 l 9.p.f.f.f.f.f.- m <.h.h.h.h.h.h.h.h.h.h.h.",
"h.h.h.h.h.h.h.h.h.h.h.h.O O 5 6 = l h 9.a.f.f.f.f.s.f m <.h.h.h.h.h.h.h.h.h.h.h.",
"h.h.h.h.h.h.h.h.h.h.h.h.O O O & * l r 9.y.f.f.f.f.a.h m >.h.h.h.h.h.h.h.h.h.h.h.",
"h.h.h.h.h.h.h.h.h.h.h.h.h.O O O = l e 3.r.f.f.f.a.W D G :.h.h.h.h.h.h.h.h.h.h.h.",
"h.h.h.h.h.h.h.h.h.h.h.h.h.h.O O * l f P 6.q.s.~ : K _ :.h.h.h.h.h.h.h.h.h.h.h.h.",
"h.h.h.h.h.h.h.h.h.h.h.h.h.h.h.h.: l Y j e 6 6 8 : J h.h.h.h.h.h.h.h.h.h.h.h.h.h.",
"h.h.h.h.h.h.h.h.h.h.h.h.h.h.h.O * l J T n M M v : J Q h.h.h.h.h.h.h.h.h.h.h.h.h.",
"h.h.h.h.h.h.h.h.h.h.h.h.h.h.O O @ k z J L Z X.Z S _ ( Q h.h.h.h.h.h.h.h.h.h.h.h.",
"h.h.h.h.h.h.h.h.h.h.h.h.h.O O O + d c z K F X.+.:.:.*.( h.h.h.h.h.h.h.h.h.h.h.h.",
"h.h.h.h.h.h.h.h.h.h.h.h.O O O O 5 6 6 w K G X.+.%.:.:.=.W h.h.h.h.h.h.h.h.h.h.h.",
"h.h.h.h.h.h.h.h.h.h.h.h.O O + 5 6 6 6 6 w 7 a X.@.%.:.;.-.h.h.h.h.h.h.h.h.h.h.h.",
"h.h.h.h.h.h.h.h.h.h.h.O O O O $ 5 6 6 6 a a N X.X.%.:.1.p.h.h.h.h.h.h.h.h.h.h.h.",
"h.h.h.h.h.h.h.h.h.h.h.2 # O O O 5 6 7 p X.X.X.X.X.%.:.w.g.h.h.h.h.h.h.h.h.h.h.h.",
"h.h.h.h.h.h.h.h.h.h.h.0.` O O O & 5 i X.X.X.X.X.X.%.&.s.f.h.h.h.h.h.h.h.h.h.h.h.",
"h.h.h.h.h.h.h.h.h.h.h.f.e.O O O O & i X.X.X.X.X.@.%.%.f.d.d.h.h.h.h.h.h.h.h.h.h.",
"h.h.h.h.h.h.h.h.h.h.2.f.y.c c c ` [ b i X.X.X.X.@.%.h.a.a.s.h.h.h.h.h.h.h.h.h.h.",
"h.h.h.h.h.h.h.h.h.h.y.f.6.I 4 4 I R u i o.O.X.o.-.h.h.8.a.a.h.h.h.h.h.h.h.h.h.h.",
"h.h.h.h.h.h.h.h.h.h.f.f.h.h..   .   3 b A ^ ^ !     h.h.f.f.h.h.h.h.h.h.h.h.h.h.",
"h.h.h.h.h.h.h.h.h.h.f.f.h.h.. . . . . X X .   . . . h.h.f.f.h.h.h.h.h.h.h.h.h.h.",
"h.h.h.h.h.h.h.h.h.h.a.y.h.h.. . . . . . . . . . . . h.h.h.h.h.h.h.h.h.h.h.h.h.h.",
"h.h.h.h.h.h.h.h.h.h.9.h.h.      . . . . . . . .   . . h.h.h.h.h.h.h.h.h.h.h.h.h.",
"h.h.h.h.h.h.h.h.h.h.h.h.h.      . . . . .     . . . . h.h.h.h.h.h.h.h.h.h.h.h.h.",
"h.h.h.h.h.h.h.h.h.h.h.h.. . . o . . .   . . . . . . . . h.h.h.h.h.h.h.h.h.h.h.h.",
"h.h.h.h.h.h.h.h.h.h.h.. . . X . X . . . .   . .   . . . h.h.h.h.h.h.h.h.h.h.h.h.",
"h.h.h.h.h.h.h.h.h.h.h.h.h.1 , X X o . . . .   o  .U { ..h.h.h.h.h.h.h.h.h.h.h.h.",
"h.h.h.h.h.h.h.h.h.h.h.h.h.h.e.| 1 o .     . > ] i.t.a.h.h.h.h.h.h.h.h.h.h.h.h.h.",
"h.h.h.h.h.h.h.h.h.h.h.h.h.5.u.u.h.  . . . . I i.i.i.h.h.h.h.h.h.h.h.h.h.h.h.h.h.",
"h.h.h.h.h.h.h.h.h.h.h.h.7.u.u.t.h.h.h.. . h.h.i.i.i.h.h.h.h.h.h.h.h.h.h.h.h.h.h.",
"h.h.h.h.h.h.h.h.h.h.h.h.i.i.u.h.h.h.h.. h.h.h.u.i.i.h.h.h.h.h.h.h.h.h.h.h.h.h.h.",
"h.h.h.h.h.h.h.h.h.h.h.. t.u.h.h.h.h.h.h.h.h.h.i.e.] h.h.h.h.h.h.h.h.h.h.h.h.h.h.",
"h.h.h.h.h.h.h.h.h.h.h.. . . h.h.h.h.h.h.h.h.h.h.      h.h.h.h.h.h.h.h.h.h.h.h.h.",
"h.h.h.h.h.h.h.h.h.h.h..   . . h.h.h.h.h.h.h.h.h.        h.h.h.h.h.h.h.h.h.h.h.h."
};
