/* XPM */
static char *result[] = {
/* columns rows colors chars-per-pixel */
"40 40 232 2 ",
"   c #0D0E0A",
".  c #140E0C",
"X  c #1D0B0C",
"o  c #170A06",
"O  c #0B1504",
"+  c #031B01",
"@  c #0B140D",
"#  c #091805",
"$  c #12120D",
"%  c #161605",
"&  c #0D0E13",
"*  c #130D14",
"=  c #180A16",
"-  c #0B1516",
";  c #121214",
":  c #1C1616",
">  c #23050C",
",  c #25080D",
"<  c #240412",
"1  c #2A0216",
"2  c #230A13",
"3  c #2B011A",
"4  c #280A1A",
"5  c #330119",
"6  c #3C0C1A",
"7  c #350818",
"8  c #26181A",
"9  c #361718",
"0  c #2E120E",
"q  c #022200",
"w  c #0A2705",
"e  c #172709",
"r  c #172614",
"t  c #133606",
"y  c #252419",
"u  c #3B271B",
"i  c #380723",
"p  c #231421",
"a  c #341024",
"s  c #292524",
"d  c #372927",
"f  c #3C3831",
"g  c #46091A",
"h  c #590B19",
"j  c #49171C",
"k  c #5C1418",
"l  c #480B26",
"z  c #540723",
"x  c #421522",
"c  c #471727",
"v  c #561B20",
"b  c #6C1B28",
"n  c #452527",
"m  c #552921",
"M  c #44332C",
"N  c #56362B",
"B  c #4A3739",
"V  c #522F37",
"C  c #77262B",
"Z  c #663525",
"A  c #743A38",
"S  c #723030",
"D  c #17530F",
"F  c #235A1C",
"G  c #3B5A1E",
"H  c #1F6518",
"J  c #036301",
"K  c #2A611B",
"L  c #294829",
"P  c #3E5B2D",
"I  c #317427",
"U  c #3E7A33",
"Y  c #2F682B",
"T  c #434435",
"R  c #51573D",
"E  c #4C4A30",
"W  c #6A4439",
"Q  c #794739",
"!  c #4C6C35",
"~  c #6A7335",
"^  c #483C44",
"/  c #593845",
"(  c #464445",
")  c #574B46",
"_  c #4D514C",
"`  c #654647",
"'  c #73575A",
"]  c #70554D",
"[  c #5D6B48",
"{  c #537145",
"}  c #71704E",
"|  c #79706E",
" . c #862A28",
".. c #883A3C",
"X. c #923732",
"o. c #8B3131",
"O. c #86483C",
"+. c #95453C",
"@. c #8D5D39",
"#. c #A9523D",
"$. c #AB4B3B",
"%. c #886538",
"&. c #9D3C43",
"*. c #814944",
"=. c #984342",
"-. c #9A5545",
";. c #975B50",
":. c #855845",
">. c #A35447",
",. c #A2575A",
"<. c #A94A43",
"1. c #866849",
"2. c #987B46",
"3. c #856E57",
"4. c #A56555",
"5. c #985D61",
"6. c #9C716F",
"7. c #897577",
"8. c #92767A",
"9. c #967878",
"0. c #896D6B",
"q. c #27A61B",
"w. c #33A91F",
"e. c #299E22",
"r. c #339D2C",
"t. c #339B2A",
"y. c #388E3B",
"u. c #3A9836",
"i. c #2BA424",
"p. c #2DAA25",
"a. c #2EA32A",
"s. c #2CAA2A",
"d. c #26A626",
"f. c #31AB25",
"g. c #32A42B",
"h. c #33AC2B",
"j. c #39A82E",
"k. c #2DB227",
"l. c #35B22C",
"z. c #3AB42F",
"x. c #37BB2A",
"c. c #2DA636",
"v. c #33A434",
"b. c #33AA32",
"n. c #3AAD35",
"m. c #38AA37",
"M. c #3CB433",
"N. c #3DBC34",
"B. c #3DBB39",
"V. c #39B336",
"C. c #42963B",
"Z. c #6C8C3D",
"A. c #72873A",
"S. c #6E983C",
"D. c #46A93A",
"F. c #44B435",
"G. c #43BC35",
"H. c #41B43C",
"J. c #43BD3B",
"K. c #4ABE3D",
"L. c #4ABB38",
"P. c #57BA3D",
"I. c #5DAD3E",
"U. c #63B23C",
"Y. c #3BC22F",
"T. c #3CC535",
"R. c #3EC43B",
"E. c #3BCB36",
"W. c #36D435",
"Q. c #43C62D",
"!. c #44C335",
"~. c #4AC236",
"^. c #43CA34",
"/. c #45C23B",
"(. c #4AC33D",
"). c #44C93C",
"_. c #4AC93D",
"`. c #51C33E",
"'. c #3F9D44",
"]. c #3DB144",
"[. c #478D46",
"{. c #4D9744",
"}. c #578F4D",
"|. c #668859",
" X c #759C5B",
".X c #70934B",
"XX c #48A846",
"oX c #55A847",
"OX c #45BE42",
"+X c #4BBD43",
"@X c #45B240",
"#X c #52BD44",
"$X c #55BB4B",
"%X c #59B746",
"&X c #5DA95A",
"*X c #59B852",
"=X c #68AA49",
"-X c #77A64B",
";X c #65B147",
":X c #69AA57",
">X c #63B358",
",X c #5E9B62",
"<X c #799863",
"1X c #7B8678",
"2X c #6AA762",
"3X c #6EA962",
"4X c #3DC444",
"5X c #45C442",
"6X c #4BC442",
"7X c #4BC941",
"8X c #4AC648",
"9X c #52C445",
"0X c #54C349",
"qX c #87893E",
"wX c #8B974A",
"eX c #8F8047",
"rX c #84896E",
"tX c #8EA27F",
"yX c #977A84",
"uX c #998786",
"iX c #99988C",
"pX c #A38D8D",
"aX c #A8868C",
"sX c #A3978C",
"dX c #A98E93",
"fX c #AB9296",
"gX c #A59295",
"hX c #B58F93",
"jX c #90A682",
"kX c #A0A19C",
"lX c #AC99A3",
"zX c #C58991",
/* pixels */
"L.!.(.(.(./.).J.+X!.G.;Xe 3 4 e G -XU.P.%X%XU.;X;X%X).T.!.`.~.(.).J././.!./.!.!.",
"(./.)./.5X5X6X(.+X#X;Xw . 4 < X y E ! ~ ~ A.A.Z.A.S.-X0X7X_.7X7X).7X(./.).!.!.!.",
"5X8X5X5X6X8XOX6X#X&Xe < 3 X 1 1 > 0 m Z o.O.@.%.%.%.eXS.I.`._.7X(.7X(./.7X_./.).",
"6X+X+X6XN.J.(./.%XD o i 3 = 1 1 5 7 g b  .X.$.>.$.#.-.%.A.-X0X8X/.p.f./._././.!.",
"+XK.K.f.f.q.x.!.*Xw = 3 1 < < > X 1 g b o. .<.<.$.>.4.4.2.qX=X7Xh.i.s.p.G.7X/.!.",
"+X6X9Xh.f.q.Y.`.2X+ o 2 < 1 < > , 6 b ..=.+.#.#.,.;.S C X.qX;XW.J.q.f.f.h.z././.",
"6XJ.6X/.k.x.^.9X>Xw . < 1 < < > 7 g C &.<.-.Q W W W x h  .eXU.W.OXi.f.h.p.f././.",
"/.6X/.^.!.!.`.(.0XK o 1 1 X > 5 6 h  .<.-.Q 9 9 n u x g S 1.-X~.6Xa.i.l.h.p././.",
"J.L.~.Q.Q.!.K././.{.O 3 1 > X i k C  .+.Q d B 8.9.3.d c g m 1.-X9XM.i.h.f.p.(./.",
"~.~.~.^.Y.l.F.G.T.#X! > 1 1 7 6 k  . .=.W d 7.8.aXuXB d c v 1.wX8XV.e.a.h.h.G./.",
"/./._.T.s.h.b.s.N.9X:XO > 3 7 6 v C  .+.A ' 8.8.aXuXrXd c c 1.wX6X+Xh.i.f.k.J./.",
"R.R.4Xk.s.b.r.a./._.%XF O > 1 6 z z C =.A 6.9.8.fXuXuXB n m ~ wXOX6X/.M.h.z././.",
"/./.T.s.s.g.t.M./.^.Q.%XY O o 0 l g h ..*.6.9.8.fXuXuXB c j } wX+X/.6XK./.(././.",
"~.!.N.f.a.t.F./.^.E.!.9XoX}.[ u 6 g g v m 9.8.aXfXpXuXc c j ~ -X(.(.K./.6X/././.",
"~.!./.h.e.j.L.~.(._._.+X*X&X|.L , 6 x 6 u E 8.aXyXuX) n Z Z ~ ;X(.8X/././.!./.!.",
"!.!.6Xc.b.+X!._._.9X6X#XJ K w O 2 3 i x n ) ` ` B d T ` -.%.S._.6XJ.(.(.J././.!.",
"R./.(.J.J.5X0X~._.%X Xy 4 < 4 1 5 4 s y m *.O.N s s _ }  X%X6XR.5X6XJ.5X(./././.",
"E.L.`.(.5X9X_.^.E.#Xt , 2 < < 7 6 a B N O.+.+.Z 9 s / 3.3. X>X0X6X5X/./.(.J./.!.",
"E.~.`.9X5X8X~.^.W.%X% 7 5 > 7 z a m W Q +.X.;.A M B ] +.&.1. X&X/.(.(.(.7X)./.!.",
"T.~.P.9X8X7X~.Q.).>X8 5 5 4 g z n ` ] *.*.,.5.' ' ) O.+.&.Q <X>X(.)././.).(././.",
").6X~.9X9X(./.f.D.U = i 3 6 g z c n 0.8.9.yXlXlXkXsX@.>.;.] <X:X(././.7X).7X!./.",
"J.(./.(.7X5X7Xj.[.# = i 5 g 6 i V ' ^ B ^ ^ ( _ ( ) ] hXzX9.} 3X(.(.)./.N.).!.!.",
"~.6X_.6X5X5XJ.m.C.O < 3 1 0 / / / ` p ; * @ @ & 8 d pXhXhX0.[  X/.8X/.l.w.x././.",
"L.)./.7X5X5Xl.r.C.q X < 2 4 7.pX' p - ; .   @ & d 9.dXiX] R ! &X/.(.G.p.i.i.G.J.",
"(./.(._.).N.p.g.t.I q % % X 8.fXgX| y % . * & - s R ] R ! :XP.%X5XH.h.h.i.i././.",
"/.L.`.(.).Y.f.g.r.$X>X Xw , / dXfXgXp $ . = & - f |..X}.D.(./.J.J.@Xh.s.i.i.K./.",
"OX6X(._.^.x.i.t.r.OX/.*X+ X < uXfXfX' s $ ; * @ F ;X%X$XK.(./.OXOXh.g.i.i.5XJ./.",
"6XJ.(.(.~.f.a.r.+X8XR.XX! X = | gXlXhXB & - & # D 9X6X6X+X6X+X#XV.g.j.e.i.(.J.J.",
"K.).6X8Xl.e.e.b.OX5X0XH w : ; % 7.gXgX) ; & & O F *X#X5X6X)./.K.j.h.i.d.J.(.6X!.",
"J.).6X/.K.F.J.5X5X6X$XF @ * ; # 8 0.| f & * ; @ r Y XX6X/.4XT.Y.h.i.i.f.J./././.",
"5X5XG.L.L.~.(./.7X5X*XF @ & * : B p   & @ @ . ; @ w oX(./.5X).^.J.N.z.J.!././.).",
"4X5X~.`.`.~.L.L.h.B.$XH @ p p ^ / 8 @ : s r y : * w XX^.).9X$X~._.(././.!.(./.!.",
"!.!.N.V.+XL.f.k.i.D.2X{ _ ` V B / @ + { 1XrXrXB = e XXW.W.!.F.F.(.7X(.(./.(.6X/.",
"!.N.V.n.n.H.h.w.d.XXq @ . T T ) L # + ! <XtXiXyX( t D.T.Y.l.i.f.J.(.(.(.6X(._./.",
"!.J.H.v.b.m.g.d.s.y.+ * @ ! U }.P q D '.&XjXgXlX1XF oXF.h.c.i.f.J.6XJ.(.(./.(./.",
"R.K.H.m.a.b.v.s.k.y.- * L '.r.u.Y D y.].].,XiXgXiX2XD.f.h.a.g.l.J.K.J.J.J././.J.",
"/.OXL.M.b.b.m.V.V.u.+ @ '.s.s.c.u.u.c.c.'.'.|.gXhXjXXXd.s.n.K.J.J.J.J.J.J././.(.",
"/.6XK.G.l.m.n.G.N.D.I [.].N.l.r.s.c.c.c.c.c.{.[ aXiX,XV.B.9X8X].G.J.G.B.B.J././.",
"OX5XJ.G.G.F.J./.G.K.@X@XB.Y./.+Xk.B.].].s.V.oX+ .   + C.J./.B.OXJ.J.J.B.J.J././.",
"R././.~.L.~./.(./.L.).T.T./.K.+X/.J.8X5X5X0X:Xq @ & + U #X5XR.K././.J./././././."
};
