/* XPM */
static char *result[] = {
/* columns rows colors chars-per-pixel */
"40 40 188 2 ",
"   c #101010",
".  c #1B1315",
"X  c #131E15",
"o  c #240312",
"O  c #2A0414",
"+  c #290F19",
"@  c #330617",
"#  c #390719",
"$  c #3D081A",
"%  c #241B1B",
"&  c #2A1C1B",
"*  c #3B161E",
"=  c #321B1E",
"-  c #182917",
";  c #1A3218",
":  c #29241D",
">  c #272A1B",
",  c #2D361E",
"<  c #2A2828",
"1  c #312728",
"2  c #38392B",
"3  c #3D3432",
"4  c #44091C",
"5  c #490A1E",
"6  c #500E1F",
"7  c #4B0E21",
"8  c #4C1424",
"9  c #5D1522",
"0  c #581825",
"q  c #601622",
"w  c #641923",
"e  c #6B1D24",
"r  c #422321",
"t  c #4A262A",
"y  c #572726",
"u  c #492D30",
"i  c #502931",
"p  c #463935",
"a  c #433C35",
"s  c #5D3C36",
"d  c #523C3E",
"f  c #682427",
"g  c #65232C",
"h  c #6A282D",
"j  c #762227",
"k  c #7E2728",
"l  c #782928",
"z  c #7E3A2D",
"x  c #6B2930",
"c  c #653B34",
"v  c #793634",
"b  c #27451D",
"n  c #2F4425",
"m  c #234C20",
"M  c #304220",
"N  c #314E21",
"B  c #235221",
"V  c #255F22",
"C  c #375B2B",
"Z  c #236A2E",
"A  c #2E722D",
"S  c #29772C",
"D  c #3A772D",
"F  c #4C443C",
"G  c #55443F",
"H  c #6D4135",
"J  c #48672D",
"K  c #447A38",
"L  c #6E7D36",
"P  c #707A38",
"I  c #663844",
"U  c #534941",
"Y  c #594947",
"T  c #555146",
"R  c #5C5152",
"E  c #6C4E44",
"W  c #7B4642",
"Q  c #6A5146",
"!  c #61544E",
"~  c #71585D",
"^  c #486141",
"/  c #566B45",
"(  c #636B45",
")  c #6D5F61",
"_  c #786468",
"`  c #6D7F65",
"'  c #7C7664",
"]  c #852B2A",
"[  c #882E2C",
"{  c #80312F",
"}  c #8C332F",
"|  c #8D3530",
" . c #99453A",
".. c #9C4B3D",
"X. c #8E5A3C",
"o. c #9D4D40",
"O. c #8A5643",
"+. c #9E5342",
"@. c #A25342",
"#. c #966141",
"$. c #986743",
"%. c #8A7642",
"&. c #A37149",
"*. c #A86550",
"=. c #8F6E73",
"-. c #906F73",
";. c #827E76",
":. c #8D7A7F",
">. c #947579",
",. c #947D7E",
"<. c #987B7E",
"1. c #A57269",
"2. c #2F8726",
"3. c #35832B",
"4. c #358B2E",
"5. c #2E9F27",
"6. c #36922B",
"7. c #349C2C",
"8. c #2D983C",
"9. c #379232",
"0. c #2EA027",
"q. c #2FA328",
"w. c #31A42B",
"e. c #31AB2A",
"r. c #37B22F",
"t. c #39B82F",
"y. c #35AB33",
"u. c #3AAE33",
"i. c #35A63E",
"p. c #35A93A",
"a. c #38AE3A",
"s. c #3BB433",
"d. c #3DBB34",
"f. c #3CB33A",
"g. c #419D35",
"h. c #469439",
"j. c #69973C",
"k. c #45AF3B",
"l. c #41BD36",
"z. c #48BB37",
"x. c #45B53A",
"c. c #44BC3A",
"v. c #48BF3E",
"b. c #55BA3E",
"n. c #3FC234",
"m. c #43C337",
"M. c #45C339",
"N. c #49C43E",
"B. c #46C93B",
"V. c #49C93D",
"C. c #389844",
"Z. c #2EA341",
"A. c #31A641",
"S. c #33A941",
"D. c #508E4F",
"F. c #559844",
"G. c #719440",
"H. c #4EA641",
"J. c #55A645",
"K. c #4DB642",
"L. c #4CB942",
"P. c #55BA42",
"I. c #59BA48",
"U. c #5AA651",
"Y. c #6BA558",
"T. c #6AB35C",
"R. c #6C9265",
"E. c #789064",
"W. c #6CAA69",
"Q. c #70B669",
"!. c #4BC440",
"~. c #4ECA41",
"^. c #53C547",
"/. c #80846A",
"(. c #8C877D",
"). c #9F8D79",
"_. c #899677",
"`. c #987E81",
"'. c #8C8F80",
"]. c #958786",
"[. c #9D8485",
"{. c #9C888C",
"}. c #9F9089",
"|. c #A58D8D",
" X c #A88F8E",
".X c #A79190",
"XX c #AA9393",
"oX c #A4A99D",
/* pixels */
"M.m.M.M.N.M.M.d.z.M.m.M.m.M.m.M.N.J y z z X.X.#.#.#.j.m.m.M.M.M.N.m.M.m.m.m.M.M.",
"N.N.N.!.N.!.!.!.N.N.N.l.M.N.l.m.J y 6 w ] }  .@.@.@.$.G.V.~.~.~.V.V.V.N.M.M.m.M.",
"N.N.v.N.B.!.!.N.N.N.N.V.N.N.k.D r 5 6 w ] ] |  .@.@.@.%.N.N.~.~.B.B.V.B.V.V.M.m.",
"N.!.N.l.s.c.N.!.N.N.N.N.N.N.g.o 4 5 ] ] ] ] ] [ ....@.%.I.N.V.~.m.e.e.d.B.V.M.M.",
"!.N.N.e.e.q.t.B.N.V.N.N.B.m.6.o 4 k ] ] ] ] [ ] ] } ..*.&.b.V.N.r.q.e.e.l.N.m.M.",
"N.!.M.e.e.q.s.V.N.N.N.N.B.D : o w ] ] [ s { [ v * r y { &.b.V.V.s.q.e.e.e.l.M.m.",
"!.N.N.l.e.t.V.B.N.V.V.V.V.D O # 9 f l a Y ! XXXX(.1 * h &.P.N.V.m.q.e.e.e.e.M.M.",
"N.l.B.B.M.n.B.B.V.V.V.M.g.N @ 5 $ = n -.>.XXXXXXXX|.* j &.P.V.V.B.q.q.e.e.e.m.M.",
"M.M.M.M.m.n.m.m.m.V.V.V.M o 4 4 = 3 p >.<.XXXXXXXXXX* h &.b.N.V.V.y.q.e.e.e.M.m.",
"M.M.N.M.d.t.t.n.m.V.N.V.M o 4 5 & a u >. XXXXXXXXX Xt h &.b.!.N.N.s.q.q.e.e.M.m.",
"M.M.N.m.e.e.e.w.l.N.V.V.M o o $ % a 8 <.|. XXXXXXX|.i f $.b.N.!.N.v.w.0.e.e.m.M.",
"m.m.N.e.e.e.q.w.M.N.V.N.D , o o % a 8 =.<.XXXXXX X! c H L c.m.N.!.N.!.s.e.d.m.m.",
"M.m.l.e.e.q.q.s.N.N.V.N.!.D > : : a i I -.<.XXY : G E P e.e.t.N.N.v.v.N.N.N.M.M.",
"m.M.M.e.q.q.s.c.N.N.N.N.!.V.x.x.M a U i 8 5 7 8 : d h.5.q.e.e.N.!.N.N.v.N.N.m.m.",
"M.M.M.e.5.e.M.N.V.V.N.!.N.d.6., : a F U h j j f : F / K w.5.e.M.!.v.N.N.N.v.m.M.",
"M.m.M.e.q.v.N.N.V.N.N.N.!.2.b o + 3 F d c z ] ] c W Q / y.w.l.V.N.!.N.N.M.c.M.m.",
"m.M.N.M.c.N.N.N.N.!.N.N.g.b o o O t d a G v [ } +.@.O.( H.!.!.!.N.N.L.N.M.M.M.M.",
"M.M.N.!.N.N.V.N.N.N.!.N.2 o o o $ 5 5 8 G v ] } ..@.@.O.T L.N.!.N.N.N.N.m.M.m.M.",
"M.N.N.!.N.N.V.!.N.!.M.N.b o O 4 5 5 5 5 6 6 e ] } ..@.+.O.K.!.N.N.N.N.M.B.B.m.m.",
"m.N.!.!.N.V.!.!.N.N.x.C & o o @ 4 5 5 5 e e j ] [ ..@.*.).L.!.!.N.N.N.B.B.B.m.M.",
"m.N.N.N.V.N.!.e.e.!.k.p + o o o 4 5 6 w ] ] ] ] ] ..@.1.oX^.!.!.N.N.m.m.V.V.M.M.",
"m.V.N.N.N.N.V.e.w.s.x.,.~ o o o $ 4 q ] ] ] ] ] ] ..o..XXX^.!.!.N.M.M.N.d.V.m.m.",
"M.N.N.N.N.!.m.e.q.w.K..X,.o o o o $ 9 ] ] ] ] ] } ....XX|.|.!.!.V.N.B.e.e.s.m.M.",
"M.N.N.N.N.M.r.q.5.h.' XX[.d d d ~ ~ g q ] ] ] ] | X.Y.|.|.|.!.v.M.M.l.e.q.q.l.M.",
"M.N.N.N.N.l.e.q.5.h.`.XX/.^ 3 3 U Y 0 w { ] ] k o.L.B.E.|.|.T.x.M.x.e.e.q.q.M.m.",
"M.N.N.N.V.l.e.0.5.F.XXXXK.h.        3 w x W W R   B !.J..XXXT.c.c.l.e.e.5.q.m.N.",
"m.M.N.N.m.d.q.0.w.F..X|.N.x.          . .           c.L.XXXXI.N.c.e.e.5.5.N.c.m.",
"M.N.N.V.B.e.5.5.c.J.|._.N.k.                        x.!.!.!.!.M.s.e.e.5.5.M.m.m.",
"M.N.N.N.t.q.5.y.!.N.E.v.!.B                         m N.N.!.N.d.e.e.5.5.c.M.M.M.",
"m.N.N.M.l.r.z.N.N.!.N.!.4.                            L.!.N.!.d.e.q.q.e.l.M.M.M.",
"M.N.v.c.N.N.v.M.B.N.!.L.m     .                       m B.!.!.V.l.l.s.l.c.M.M.M.",
"M.N.N.v.N.M.v.v.y.f.a.;                               m B.M.M.M.N.N.N.N.M.N.B.M.",
"M.l.x.s.v.d.s.e.q.s.d.6.3.Z 1 . X .           X _ Y ) R.M.n.d.s.M.~.N.N.N.N.M.M.",
"M.l.s.f.f.f.e.q.q.s.f.f.f./ :._ 2 >         < ) |.]._.Q.m.r.e.e.l.!.N.M.N.N.N.M.",
"M.l.u.p.Z.e.e.q.e.p.p.Z.C.` {.].H.V -     ; ^ }.{.{.Q.s.e.e.q.e.c.N.N.c.N.N.N.M.",
"M.m.k.p.e.e.q.w.y.p.i.Z.;.{.{.].g.y.A     S S.'.{.{.W.w.e.q.w.y.l.N.M.c.v.v.N.M.",
"m.M.c.f.y.w.y.f.f.f.S.A.{.{.].h.w.y.S X S 8.Z.'.{.{.W.q.y.e.c.l.v.v.c.c.v.v.!.M.",
"M.m.N.x.s.y.s.c.c.f.i.B ].{.U.0.q.p.8.Z Z.Z.Z.{.`.) D.a.f.N.v.N.c.c.l.f.c.c.B.m.",
"m.m.N.c.l.c.c.x.l.c.4.      9.c.y.s.f.a.i.p.f.U.      8.v.v.l.l.c.c.x.c.c.c.L.M.",
"M.M.m.m.m.M.m.m.m.M.u.      ; M.m.M.M.M.d.m.c.7.      ; M.m.M.M.m.M.m.M.N.M.M.m."
};
