/* XPM */
static char *result[] = {
/* columns rows colors chars-per-pixel */
"40 40 148 2 ",
"   c #101010",
".  c #181717",
"X  c #1C1718",
"o  c #1C1918",
"O  c #250312",
"+  c #2A0515",
"@  c #2C0A17",
"#  c #2D0D1A",
"$  c #320617",
"%  c #3A0719",
"&  c #34091A",
"*  c #3C0A1B",
"=  c #2F111E",
"-  c #221D1D",
";  c #2C1E1E",
":  c #30101C",
">  c #321A1E",
",  c #28221E",
"<  c #271D20",
"1  c #2C1F22",
"2  c #3B1A23",
"3  c #242121",
"4  c #2D2421",
"5  c #2F2824",
"6  c #352625",
"7  c #392124",
"8  c #322A26",
"9  c #352C2B",
"0  c #3A2B28",
"q  c #3B332E",
"w  c #3F3831",
"e  c #44091D",
"r  c #4A0A1E",
"t  c #510E1F",
"y  c #42111F",
"u  c #4C0E20",
"i  c #510E20",
"p  c #431120",
"a  c #4C1122",
"s  c #571623",
"d  c #5A1421",
"f  c #541924",
"g  c #5E1B26",
"h  c #5F1F29",
"j  c #601723",
"k  c #691C24",
"l  c #701F26",
"z  c #4E212C",
"x  c #512426",
"c  c #53202F",
"v  c #552C29",
"b  c #412F32",
"n  c #492D38",
"m  c #5B2736",
"M  c #502B31",
"N  c #463636",
"B  c #4B3436",
"V  c #463934",
"C  c #4D333A",
"Z  c #433B3A",
"A  c #4D3F3D",
"S  c #53363E",
"D  c #60272B",
"F  c #6D2B2E",
"G  c #752227",
"H  c #7E2729",
"J  c #702A2D",
"K  c #702E30",
"L  c #673630",
"P  c #603F35",
"I  c #743231",
"U  c #474039",
"Y  c #6B483E",
"T  c #744135",
"R  c #794236",
"E  c #5D3642",
"W  c #563D42",
"Q  c #4A4343",
"!  c #4A4848",
"~  c #544343",
"^  c #534B42",
"/  c #5A4B45",
"(  c #554B4A",
")  c #5C4D4C",
"_  c #6D4247",
"`  c #63434B",
"'  c #6C454C",
"]  c #7D4740",
"[  c #794A41",
"{  c #68524A",
"}  c #665452",
"|  c #645B53",
" . c #6C5A5B",
".. c #7B5D52",
"X. c #745259",
"o. c #7A565B",
"O. c #6F6060",
"+. c #7F6C68",
"@. c #842A2A",
"#. c #8A302D",
"$. c #8B3631",
"%. c #843A35",
"&. c #913A34",
"*. c #85453A",
"=. c #8E433E",
"-. c #91443E",
";. c #984439",
":. c #9D4E3F",
">. c #954C43",
",. c #9C5141",
"<. c #94544D",
"1. c #835552",
"2. c #845C52",
"3. c #975651",
"4. c #985A55",
"5. c #A25342",
"6. c #A35B45",
"7. c #A05648",
"8. c #A25C4D",
"9. c #AC644A",
"0. c #AF684B",
"q. c #826769",
"w. c #86696C",
"e. c #896B6E",
"r. c #996D66",
"t. c #846F71",
"y. c #857474",
"u. c #8E7174",
"i. c #857979",
"p. c #8E797A",
"a. c #917276",
"s. c #967977",
"d. c #9A7875",
"f. c #947679",
"g. c #947B7B",
"h. c #96807F",
"j. c #918082",
"k. c #9C8685",
"l. c #9E8888",
"z. c #A08687",
"x. c #A08788",
"c. c #A48C8C",
"v. c #A78F90",
"b. c #A59290",
"n. c #AA9393",
"m. c #A69E9D",
"M. c #AA9A98",
"N. c None",
/* pixels */
"N.N.N.N.N.N.N.N.N.N.N.N.O O O O O N.N.N.N.N.N.N.N.N.N.N.N.N.N.N.N.N.N.N.N.N.N.N.",
"N.N.N.N.N.N.N.N.N.N.N.O O O O O + r @.@.&.5.5.5.5.5.N.N.N.N.N.N.N.N.N.N.N.N.N.N.",
"N.N.N.N.N.N.N.N.N.N.O O O O O O + e k H #.;.5.5.5.5.N.N.N.N.N.N.N.N.N.N.N.N.N.N.",
"N.N.N.N.N.N.N.N.N.O O O O O O O O + e k @.#.:.5.5.5.6.5.6.N.N.N.N.N.N.N.N.N.N.N.",
"N.N.N.N.N.N.N.N.N.O O O O O O O O + e k @.#.:.5.5.5.9.9.0.0.N.N.N.N.N.N.N.N.N.N.",
"N.N.N.N.N.N.N.N.N.O O O O O O O + e k $.;.;.5.5.6.7.I F =.0.N.N.N.N.N.N.N.N.N.N.",
"N.N.N.N.N.N.N.N.N.O O O O O O O $ t H ;.5.:.R T R T s e K 0.N.N.N.N.N.N.N.N.N.N.",
"N.N.N.N.N.N.N.N.N.O O O O O O O % d @.;.,.*.6 , q , y e F 6.N.N.N.N.N.N.N.N.N.N.",
"N.N.N.N.N.N.N.N.N.N.O O O O O % s @.@.;.R 6 A f.f.q.7 2 t D 6.N.N.N.N.N.N.N.N.N.",
"N.N.N.N.N.N.N.N.N.N.O O O O % e j @.@.;.T 0 f.f.z.k.Z 8 p f 6.N.N.N.N.N.N.N.N.N.",
"N.N.N.N.N.N.N.N.N.N.N.O O O % e d G @.;.T  .f.a.c.k.g.8 0 f 6.N.N.N.N.N.N.N.N.N.",
"N.N.N.N.N.N.N.N.N.N.N.O O O O % r t G ;.I f.f.f.n.k.x.N 6 f 6.N.N.N.N.N.N.N.N.N.",
"N.N.N.N.N.N.N.N.N.N.N.N.N.O O % r r r %.] f.f.f.n.k.l.B 2 f 6.N.N.N.N.N.N.N.N.N.",
"N.N.N.N.N.N.N.N.N.N.N.N.N.N.N.+ % r r g v s.f.c.n.l.k.7 2 s ,.N.N.N.N.N.N.N.N.N.",
"N.N.N.N.N.N.N.N.N.N.N.N.N.N.N.= + * e y 7 U u.l.k.k.( 0 D J :.N.N.N.N.N.N.N.N.N.",
"N.N.N.N.N.N.N.N.N.N.N.N.= + O + O + e > q ) _ _ B 8 U Y 7.5.N.N.N.N.N.N.N.N.N.N.",
"N.N.N.N.N.N.N.N.N.N.N.# @ + O O O @ ; , q -.=.v , 8 ^ +.f.N.N.N.N.N.N.N.N.N.N.N.",
"N.N.N.N.N.N.N.N.N.N.& O + O O % * * V U =.-.-.L , 5 ^ 2.r.j.N.N.N.N.N.N.N.N.N.N.",
"N.N.N.N.N.N.N.N.N.N.@ + O O e e a M / =.-.-.:.S q w R =.-.<.N.N.N.N.N.N.N.N.N.N.",
"N.N.N.N.N.N.N.N.N.N.@ + O p e e z ^ { =.=.3.9...| | >.>.-.-.g.N.N.N.N.N.N.N.N.N.",
"N.N.N.N.N.N.N.N.N.= + @ + e e u r c +.i.g.j.m.m.m.b.>.3.4.>.g.N.N.N.N.N.N.N.N.N.",
"N.N.N.N.N.N.N.N.N.@ + # + e e * m X.W Z w W ! ! ! ( 1.n.n.d.w.N.N.N.N.N.N.N.N.N.",
"N.N.N.N.N.N.N.N.N.+ + O O & n E ) ( .           o N c.n.n.u.o.N.N.N.N.N.N.N.N.N.",
"N.N.N.N.N.N.N.N.N.@ O O + # g.c. .-             6 u.b.c.o.' ' N.N.N.N.N.N.N.N.N.",
"N.N.N.N.N.N.N.N.N.2 @ + O + f.n.n.y.o           6 ' X.' ' N.N.N.N.N.N.N.N.N.N.N.",
"N.N.N.N.N.N.N.N.N.N.N.N.    ~ n.n.n.3           < N.N.N.N.N.N.N.N.N.N.N.N.N.N.N.",
"N.N.N.N.N.N.N.N.N.N.N.N.      x.n.n.O.3           N.N.N.N.N.N.N.N.N.N.N.N.N.N.N.",
"N.N.N.N.N.N.N.N.N.N.N.N.N.    q.n.n.n.Z           N.N.N.N.N.N.N.N.N.N.N.N.N.N.N.",
"N.N.N.N.N.N.N.N.N.N.N.        . u.n.n.)           N.N.N.N.N.N.N.N.N.N.N.N.N.N.N.",
"N.N.N.N.N.N.N.N.N.N.N.          o e.t.9           . N.N.N.N.N.N.N.N.N.N.N.N.N.N.",
"N.N.N.N.N.N.N.N.N.N.N.        - C <                 N.N.N.N.N.N.N.N.N.N.N.N.N.N.",
"N.N.N.N.N.N.N.N.N.N.N.X X X X S W X     . < 3 .     N.N.N.N.N.N.N.N.N.N.N.N.N.N.",
"N.N.N.N.N.N.N.N.N.N.N.) ) W S S S     N.N.k.g.Z     N.N.N.N.N.N.N.N.N.N.N.N.N.N.",
"N.N.N.N.N.N.N.N.N.N.      W S W 1     N.N.n.n.p.Q   N.N.N.N.N.N.N.N.N.N.N.N.N.N.",
"N.N.N.N.N.N.N.N.N.N.      } } N.N.    N.N.n.n.n.i.  N.N.N.N.N.N.N.N.N.N.N.N.N.N.",
"N.N.N.N.N.N.N.N.N.N.      N.N.N.N.  N.N.N.N.n.n.n.N.N.N.N.N.N.N.N.N.N.N.N.N.N.N.",
"N.N.N.N.N.N.N.N.N.N.    N.N.N.N.N.N.N.N.N.N.u.v.n.n.N.N.N.N.N.N.N.N.N.N.N.N.N.N.",
"N.N.N.N.N.N.N.N.N.N.N.N.N.N.N.N.N.N.N.N.N.N.N. .b.x.N.N.N.N.N.N.N.N.N.N.N.N.N.N.",
"N.N.N.N.N.N.N.N.N.N.N.N.N.N.N.N.N.N.N.N.N.N.N.        N.N.N.N.N.N.N.N.N.N.N.N.N.",
"N.N.N.N.N.N.N.N.N.N.N.N.N.N.N.N.N.N.N.N.N.N.N.        N.N.N.N.N.N.N.N.N.N.N.N.N."
};
