/* XPM */
static char *result[] = {
/* columns rows colors chars-per-pixel */
"40 40 33 1 ",
"  c #2E9F27",
". c #2E9F28",
"X c #2EA027",
"o c #2FA328",
"O c #31A42A",
"+ c #32AB2A",
"@ c #36B12E",
"# c #39B82F",
"$ c #33A731",
"% c #35AB33",
"& c #39AE32",
"* c #32A73F",
"= c #34A93B",
"- c #38AF3C",
"; c #3CB433",
": c #3EBB34",
"> c #3CB43B",
", c #41BD36",
"< c #44BD3A",
"1 c #48BE3E",
"2 c #3FC234",
"3 c #43C237",
"4 c #45C339",
"5 c #49C43E",
"6 c #46C93B",
"7 c #4AC93D",
"8 c #2EA341",
"9 c #31A642",
"0 c #33A942",
"q c #3FB740",
"w c #4BC540",
"e c #4EC941",
"r c #50CA43",
/* pixels */
"43<4w44<4<343444544344413354454444444336",
"55www4ww5w5,45,4557577757755757777746443",
"5w146w4w51w47535757777557557r77r77777734",
"5544;11w5w55577557555555555757773++#4734",
"ww4++o#6w575743:3333455555555577&X++<444",
"1w4++o;7775763O++#,33345575r5757:o+++,33",
"ww44+#77775774+o+++@,445175775773oo+++44",
"4<464266577576;oO+++@445555555577oo+++34",
"446432333777ww6OX++++e551r4545575& +++63",
"445<:##23777w4w<OooO+1w551@,44555,oo++34",
"3453+++O,757wwww,Oo,55551O+,445551OO++33",
"446+++XO<7w761w15751w5151 O+@441555;+#34",
"34,++XO;4557w5ww555555551&X+++,4w1515543",
"433+XX&4575w554w5555551755+Xo++415155634",
"444+o+4557w15:+w555111<7551X  +455511133",
"344+O15577w55++:1w55,@O&551<,O,755554463",
"444<<4w4wwwww+++w55wOo++:ww1ww1w55554334",
"44www7www4wqw+++<5w1Oo+++4www41w55154443",
"444ww67ww4www2++<w4wo.+++4www1ww55547444",
"45wwwwwwwwwwwww4451w: o++6w4wwww55567634",
"3555w4w++www1www4555<X o@2ww4www55337743",
"4557w4w+o;w<ww:w555555O%22w<w1qw5546#734",
"3555ww2+o+wwwwww44555554wwwwwww4544++,44",
"45w7ww@o.$w<4ww<+;55551wwwww<ww4443+o ,3",
"355753+o.;www1eoo+:1www4wwwwwww:1<++  44",
"31575:+X.w4www<oo+;ww4www<w4w<w:,<++ X44",
"35553:oXowww1w>;++4w1$+@4wwwwww4<++  143",
"45556+  <ww44wwwweww4.o+w1wq1ww4#++  634",
"3555#X +1ww1wwww61www..+:w<wwww2++  <544",
"456<,@<www4w1w1wwww44 .+2wwww<w:+OX+,444",
"451<1555644ww4w1ww1w6%oo+>wwwww2,,,,,444",
"4555551<%:www:<<:w1ww<oo++4w4w4454111673",
"3,,,<<@+o;33,;o+;<5555% O+5762#;47514574",
"4<&%>>+oo;>>>%o++<<115wO&5553@++<7545554",
",<-=*+OO+==888.o+;;<<<1w<w1;++oO<5141554",
"<<<&++oO&=*888oX+&->->>>q>@++oO&<5<11553",
"44<,OO$>;-09==O.O=*8899980=+%&,<<<<<<153",
"431<&%;<<<--;;>o.%**889*800-<5511<<<<154",
"4441<,<<<<<><<<<&;>-=%>>q>q><4<<,<<<<114",
"344344<3,<333434433334<444<4<3443434<<34"
};
