/* XPM */
static char *result[] = {
/* columns rows colors chars-per-pixel */
"40 40 165 2 ",
"   c #061413",
".  c #0A1E16",
"X  c #0A1F18",
"o  c #0C2217",
"O  c #0E2B17",
"+  c #0C231A",
"@  c #0E2B1C",
"#  c #102C16",
"$  c #13241E",
"%  c #102D1C",
"&  c #113815",
"*  c #12331C",
"=  c #163D1E",
"-  c #0C2521",
";  c #0D2B24",
":  c #0D2E29",
">  c #0F3223",
",  c #0D312E",
"<  c #113421",
"1  c #153C22",
"2  c #193E21",
"3  c #1B3328",
"4  c #123B2A",
"5  c #0E3532",
"6  c #0F3834",
"7  c #0F3A39",
"8  c #113B35",
"9  c #103D39",
"0  c #16421E",
"q  c #1C551D",
"w  c #1D631E",
"e  c #164225",
"r  c #194522",
"t  c #1E4A23",
"y  c #14402B",
"u  c #174929",
"i  c #1C4C28",
"p  c #1B5222",
"a  c #1C5C25",
"s  c #1C552E",
"d  c #124032",
"f  c #11413D",
"g  c #144A3E",
"h  c #1F5C31",
"j  c #16523C",
"k  c #18563E",
"l  c #1A583C",
"z  c #205C25",
"x  c #22542B",
"c  c #245B2D",
"v  c #225D31",
"b  c #1E6824",
"n  c #236329",
"m  c #256A29",
"M  c #286C2A",
"N  c #257627",
"B  c #2A762B",
"V  c #2E7B2B",
"C  c #226233",
"Z  c #256C37",
"A  c #2A6B33",
"S  c #206338",
"D  c #246D38",
"F  c #26733B",
"G  c #28773D",
"H  c #27783D",
"J  c #2A7B3E",
"K  c #114342",
"L  c #134A46",
"P  c #134C4C",
"I  c #175544",
"U  c #195A44",
"Y  c #15514D",
"T  c #16584F",
"R  c #195E4E",
"E  c #155452",
"W  c #165853",
"Q  c #185C52",
"!  c #1B6243",
"~  c #1A634E",
"^  c #1C6A4D",
"/  c #1A6350",
"(  c #1D6D50",
")  c #1E7150",
"_  c #2A7D40",
"`  c #21754E",
"'  c #257C4E",
"]  c #207451",
"[  c #237B51",
"{  c #248023",
"}  c #288D26",
"|  c #2D8B2B",
" . c #32852B",
".. c #2C9725",
"X. c #2C9A28",
"o. c #33942F",
"O. c #369B2F",
"+. c #36813B",
"@. c #3C863A",
"#. c #3E8C3C",
"$. c #359633",
"%. c #369C33",
"&. c #3A9C34",
"*. c #2EA229",
"=. c #30A62B",
"-. c #31AB2A",
";. c #36A537",
":. c #3BA534",
">. c #36AC32",
",. c #3AAD34",
"<. c #37AA39",
"1. c #3EAF3C",
"2. c #3EB435",
"3. c #3EBA34",
"4. c #3EB339",
"5. c #42923F",
"6. c #40B734",
"7. c #41BB36",
"8. c #42B43A",
"9. c #44BC3B",
"0. c #48BE3D",
"q. c #44C137",
"w. c #44C338",
"e. c #49C33E",
"r. c #47CA3C",
"t. c #4AC93E",
"y. c #2D8542",
"u. c #2E8A45",
"i. c #27814E",
"p. c #2D8B4D",
"a. c #328D44",
"s. c #2F914C",
"d. c #329147",
"f. c #3B9543",
"g. c #3D9D47",
"h. c #32954B",
"j. c #389749",
"k. c #349A4B",
"l. c #399E4C",
"z. c #298953",
"x. c #37A04E",
"c. c #3CA34C",
"v. c #3AA650",
"b. c #469A40",
"n. c #4CAB47",
"m. c #41A74C",
"M. c #44AC4D",
"N. c #49AF4C",
"B. c #47B04D",
"V. c #4BB44D",
"C. c #4FB84E",
"Z. c #52B449",
"A. c #53BD4E",
"S. c #59BF4D",
"D. c #51BE50",
"F. c #4ECA41",
"G. c #50CA43",
"H. c #56C14F",
"J. c #5AC54F",
"K. c #5DC84F",
"L. c #57C451",
"P. c #5BC750",
"I. c #5DCA51",
"U. c #60CF52",
"Y. c #60D052",
/* pixels */
"w.q.q.w.e.e.q.q.9.w.7.7.7.7.7.9.e.7.p . = 3.6.7.w.w.w.w.w.w.w.w.r.q.q.q.q.w.w.w.",
"e.e.e.F.F.9.F.9.8.B % + = r O = $.t s d.S o @ = 9.0.8.0.e.F.G.G.F.t.e.r.r.q.w.w.",
"e.e.0.e.e.F.9.B @ 1 y.c.Z v u.Z * s h.k.D h k.Z * x O 0 8.e.F.F.r.r.r.r.e.t.w.w.",
"e.F.e.7.3.7.m y D C b.C.v.Z C j.x.l.B.J.V.g.N.m.v S h.C % &.7.F.q.=.-.3.w.t.w.w.",
"e.e.e.-.*.b 1 e _ _ +.Z.C.C.K.V.l.M.J.J.C.N.S.@.v v.j.c o 2 M 7.2.*.-.-.3.r.w.w.",
"e.e.r.-.{ t N.g.n f.L.P.J.K.K.V.V.L.J.J.J.P.P.P.D.B.S.5.@.J.x 0 { ..-.-.=.3.w.w.",
"e.e.e.7.q = n.U.Y.K.J.J.J.J.J.J.P.J.J.J.J.J.J.J.J.K.J.I.U.Z.t % e q *.-.-.-.w.w.",
"e.w.0.M e i @.V.A.H.J.J.J.J.J.J.P.J.J.J.J.J.J.J.J.J.J.J.P.Z.A a.x.1 & w =.-.w.w.",
"q.w.:.< d.d.A u.c.C.K.J.J.J.J.J.J.J.J.J.J.J.J.J.J.J.J.J.J.A.B.D.b.> < u a *.w.w.",
"q.w.8.O C k.D.H.V.H.K.J.J.J.J.J.J.J.J.J.J.J.J.J.J.J.J.J.J.C.D.J.J x g.x.> } w.w.",
"r.2.r C C s d.H.J.B.B.H.J.J.J.J.J.J.J.J.J.J.J.J.J.J.J.J.J.J.J.m.f.S.I.x.@ X.w.w.",
"w.,.* d.h.H d.c.x.k.V.J.J.J.J.J.J.J.J.J.J.J.J.J.J.J.J.J.J.J.J.A.P.I.S.x   o w.w.",
"w.7.N u u.x.V.V.c.V.H.K.J.J.J.J.J.J.J.J.J.J.J.J.J.J.J.J.J.J.J.J.J.J.m.G #.b.* 7.",
"w.w.0 D k.C.H.m.c.H.K.J.J.J.J.J.J.J.J.J.J.J.J.J.J.J.J.J.J.J.P.J.J.J.Z.x.m.I.# 2.",
"w.O o u.k.x.g.h.h.m.H.K.J.J.J.J.J.J.J.J.J.J.J.J.J.J.J.J.C.B.J.J.J.J.J.A.h.r   w.",
"@ F G y u.C.C.c.V.V.V.H.J.J.J.J.J.J.J.J.J.J.J.J.J.J.J.V.M.J.J.J.J.J.J.J.D.y._ + ",
"@ u.k.n.A.A.M.Z.J.J.H.J.J.J.J.J.J.J.J.J.J.J.J.J.J.J.J.B.l.C.J.J.K.J.m.H.K.x.l.o ",
":.* y.c.H.J.H.J.J.J.J.J.J.J.J.J.P.J.J.J.J.J.H.C.m.C.k.k.h.x.A.K.K.v.h.k.g.k.* o.",
"o . y.h.x.H.J.J.J.J.J.J.K.V.B.H.J.J.J.J.J.J.J.H.B.h.m.B.h.k.k.k.k.k.k.C.k.* O.w.",
"O 5.r a.A.J.J.J.J.J.J.J.K.V.x.h.m.H.J.J.J.J.J.J.J.J.P.H.M.d.k.A.H.c.h.H.H.% . 2.",
"+ ! h.l.H.A.c.A.J.J.J.J.V.k.N.B.B.L.J.J.J.J.J.J.J.J.N.k.k.k.l.C.K.J.x.Z.J.J.S.X ",
"7.o J k.C.k.k.x.A.J.K.V.x.m.A.J.J.J.J.J.J.J.J.J.J.J.L.B.k.M.c.k.C.H.c.k.A.J.Z.o ",
"$.@ * y.k.k.x.H.K.J.H.J.V.k.m.H.J.J.J.J.J.P.P.J.J.J.J.J.P.D.c.k.k.k.h.k.h.n.o q.",
"@ ^ s.u.h.j.c.A.J.J.V.x.h.h.B.H.J.N.m.J.J.S.A.A.H.J.J.J.J.B.l.S.H.c.h.h.h.o 2.r.",
"O I k 4 y.x.L.J.J.H.J.C.k.M.J.H.B.h.c.H.H.V.h.k.B.J.J.J.J.P.K.C.l.h.h.h._ @ ,.q.",
"w.o . ` s.g.S.J.V.c.V.M.k.c.C.N.k.c.c.c.H.K.C.N.K.J.H.J.H.S.P.m.k.h.k._ < ; B w.",
"w.e.O y.l.k.V.B.l.s.h.h.h.k.s.k.V.H.B.h.c.C.B.v.C.m.m.S.B.c.J.J.c.k.d.4 ^ ] + 3.",
"q.B 4 u.p.p.s.k.k.k.k.k.h.d.h.v.C.M.k.h.h.h.h.h.h.h.k.c.m.k.B.V.k.h.k.z.] I @ 7.",
"3.@ ^ i.` [ h.k.p.p.h.h.i.p.h.k.h.h.k.h.h.k.k.h.h.h.k.h.k.h.h.h.' p.k.G l % w.w.",
"7.0 j ( [ h.k.p.` [ h.p.i.s.k.s.s.h.k.k.k.k.k.s.d.p.h.k.p.' i.k.k.' S + O w.w.w.",
"w.9.o > 4 ` [ ( [ d.s.' ^ ) ' i.s.h.s.p.h.p.p.k.s.[ ] p.h.' ( [ ' ` j 9 1 ,.w.w.",
"w.0.m o 6 ^ ( Q ^ ' ` ) ) ) ^ i.h.s.` i.k.s.i.p.k.p.( ` ' ] ( R T T Q E - :.e.w.",
"w.7.:.; P L d U ) ) ( / ( ) ) ) ` ) ) ) p.k.p.) [ ` ) ~ Y / ) Y , K 5 ; a 0.e.w.",
"w.7.,.m ; : f ^ ) I 7 I ( / / ( ) ) ) ) ) ' ) ^ ~ ~ ( ( T P T P 9 : x V 0.0.F.w.",
"w.w.,.;.b - L W L 5 g ( / R ( R ~ ( ~ / ) ~ ~ ) ( ~ / ) R 7 K E P ;  .e.e.F.e.w.",
"w.w.4.<.=.b ; - : K 7 6 I ) / R ( / Y P ~ ( / Q R 7 6 W P K : + ; n 8.9.9.e.e.w.",
"w.w.q.2.>.*.} | z @ : K E 7 6 L Y Y 7 6 Y Y 7 6 Y K , + 7 P : p $.6.7.9.9.Z.e.w.",
"w.w.V.9.2.-.3.3.4.n 8 P 7 5 K L E 7 > u 5 7 $ 3 6 P 6 O e - n 9.0.7.9.9.9.9.e.w.",
"w.w.e.7.3.3.9.V.0.4.p - . : L 7 + * %.a o * %.$.r o 1 1.8.4.7.7.7.7.9.9.9.e.e.q.",
"w.w.q.q.w.w.w.w.q.q.7.3.2.p o 1 %.3.e.7.3.3.w.w.3.4.7.e.w.w.w.w.e.q.w.w.w.w.w.w."
};
