/* XPM */
static char *_3a62860cc96480bbcab56f3bc8135d3RSR0n3wwwFryPUSg[] = {
/* columns rows colors chars-per-pixel */
"41 42 7 1 ",
"  c None",
". c #091A15",
"X c #091B15",
"o c #134C4C",
"O c #1E6F50",
"+ c #33984B",
"@ c #5AC54F",
/* pixels */
"                   XX                    ",
"          XXX XX  X++XXX                 ",
"        XX+++X++XX+++X++X XX             ",
"       X+X@@++X++++@@++@+X++X            ",
"      XX++X@@+@@++@@@+@@X+++XXX          ",
"     X@+X+@@@@@@+@@@@@@@@+@@X@@X         ",
"     X@@@@@@@@@@@@@@@@@@@@@@@@@XXX       ",
"    XX@@@@@@@@@@@@@@@@@@@@@@@@@X++X      ",
"   X++X++@@@@@@@@@@@@@@@@@@@@@@+@+XXX    ",
"   X++@@+@@@@@@@@@@@@@@@@@@@@@+@@+X++X   ",
"   XX++@@@@@@@@@@@@@@@@@@@@@@@@@@X@@+X   ",
"  X++X+@@++@@@@@@@@@@@@@@@@@@@@@+@@@+X   ",
"  X+++++++@@@@@@@@@@@@@@@@@@@@@@@@@@XXX  ",
"   X++@@+@@@@@@@@@@@@@@@@@@@@@@@@@@++@@X ",
"  X++@@++@@@@@@@@@@@@@@@@@@@@@@@@@@@++@X ",
" XX+++++++@@@@@@@@@@@@@@@@@@@+@@@@@@@+XX ",
"X++X+@@+@@+@@@@@@@@@@@@@@@@@+@@@@@@@@@++X",
"X++@@@+@@@@@@@@@@@@@@@@@@@@@++@@@@@+@@++X",
" X++@@@@@@@@@@@@@@@@@@@@+@+++++@@@+++++X ",
"XX+++@@@@@@@@@+@@@@@@@@@@++@++++++++@+X  ",
"X@X+@@@@@@@@@@+++@@@@@@@@@@@@+++@@++@@XX ",
"XO++@@+@@@@@@++@+@@@@@@@@@@+++++@@@+@@@@X",
" X++@+++@@@@++@@@@@@@@@@@@@@++@++@@++@@@X",
" XX++++@@@@@@++@@@@@@@@@@@@@@@@+++++++@X ",
"XO+++++@@@@++++@@@+@@@@@@@@@@@++@@++++X  ",
"XOOX++@@@@@@++@@@++@@@+++@@@@@@@@+++++X  ",
" XXO++@@@+@@++@@++++@@@+@@@@@@@@+++++XX  ",
"  X+++@@+++++++++@@++@@+@@+@@+@@@+++XOOX ",
"  X+++++++++++++@@++++++++++@++@@+++OOOX ",
" XO+OO+++++++O+++++++++++++++++++O+++OX  ",
" XOOO+++OO++O+++++++++++++++++O+++O+XX   ",
"  XOO++OO+++OO++O++++++++OO++OOO++OXX    ",
"  XXXOOOO++OOOOO+++O++O+++OO++OOOOOOoX   ",
"   XoOOoOOOOOOOO++OO+++O++OOOOOOoooooX   ",
"   XooXOOOOoOOOOOOOOO++OOOOOooOOoXoXX    ",
"    XXoOOoXoOOoOOOOOOOOOOoOOOoooooX      ",
"     XoooXoOOoOOoOOoOOoOOOoOOoXoooX      ",
"      XXXooXoOOoOOoooOOoOoXooooXXX       ",
"         XXoooXooooXoooXoooXXooX         ",
"          XooXooooX XoX XooX XX          ",
"           XXXooXX  XX   XX              ",
"              XX                         "
};
