/* XPM */
static char *result[] = {
/* columns rows colors chars-per-pixel */
"40 40 125 2 ",
"   c #00070C",
".  c #04090D",
"X  c #07110F",
"o  c #08120A",
"O  c #000410",
"+  c #030E11",
"@  c #061311",
"#  c #081412",
"$  c #061813",
"%  c #0A1D16",
"&  c #0A1E19",
"*  c #121E1C",
"=  c #0B2016",
"-  c #0B231B",
";  c #0D2A1C",
":  c #102D1C",
">  c #0F311F",
",  c #10311E",
"<  c #0B2621",
"1  c #0C2B26",
"2  c #0D2D29",
"3  c #182625",
"4  c #0F3223",
"5  c #0D312E",
"6  c #103320",
"7  c #153D24",
"8  c #183C21",
"9  c #123C2A",
"0  c #0E3532",
"q  c #0F3834",
"w  c #0F3A39",
"e  c #103532",
"r  c #113C36",
"t  c #103D39",
"y  c #154227",
"u  c #1B4324",
"i  c #1F4925",
"p  c #15432A",
"a  c #174829",
"s  c #1C4C28",
"d  c #1C552E",
"f  c #124032",
"g  c #11413D",
"h  c #154D3C",
"j  c #1F5C31",
"k  c #17533E",
"l  c #18563E",
"z  c #1A583C",
"x  c #22532A",
"c  c #245B2D",
"v  c #225D31",
"b  c #226233",
"n  c #256C37",
"m  c #2A6B33",
"M  c #206338",
"N  c #246D38",
"B  c #26733B",
"V  c #28773D",
"C  c #27783D",
"Z  c #2A7B3E",
"A  c #114342",
"S  c #134A46",
"D  c #134C4C",
"F  c #175544",
"G  c #195A44",
"H  c #15514D",
"J  c #16584F",
"K  c #195E4E",
"L  c #155452",
"P  c #165853",
"I  c #185C52",
"U  c #1B6243",
"Y  c #1A634E",
"T  c #1C6A4D",
"R  c #1A6350",
"E  c #1D6D50",
"W  c #1E7150",
"Q  c #2A7D40",
"!  c #21754E",
"~  c #257C4E",
"^  c #207451",
"/  c #237B51",
"(  c #36813B",
")  c #3C863A",
"_  c #3E8C3C",
"`  c #42923F",
"'  c #2D8542",
"]  c #2E8A45",
"[  c #27814E",
"{  c #2A854D",
"}  c #2D8B4D",
"|  c #328D44",
" . c #2F914C",
".. c #329147",
"X. c #3B9543",
"o. c #3D9D47",
"O. c #32954B",
"+. c #389749",
"@. c #349A4B",
"#. c #399E4C",
"$. c #298953",
"%. c #37A04E",
"&. c #3CA34C",
"*. c #3AA650",
"=. c #469A40",
"-. c #4CAB47",
";. c #41A74C",
":. c #44AC4D",
">. c #49AF4C",
",. c #47B04D",
"<. c #4BB44D",
"1. c #4FB84E",
"2. c #52B449",
"3. c #53BD4E",
"4. c #59BF4D",
"5. c #51BE50",
"6. c #56C14F",
"7. c #5AC54F",
"8. c #5DC84F",
"9. c #57C451",
"0. c #5BC750",
"q. c #5DCA51",
"w. c #60CF52",
"e. c #60D052",
"r. c None",
/* pixels */
"r.r.r.r.r.r.r.r.r.r.r.r.r.r.r.r.r.r.% % = r.r.r.r.r.r.r.r.r.r.r.r.r.r.r.r.r.r.r.",
"r.r.r.r.r.r.r.r.r.r.- - - - ; - r.% d ..b & - = r.r.r.r.r.r.r.r.r.r.r.r.r.r.r.r.",
"r.r.r.r.r.r.r.r.= 7 ' &.n c ] n , d O.#.N v @.m = ; ; - r.r.r.r.r.r.r.r.r.r.r.r.",
"r.r.r.r.r.r.r.7 N b =.1.*.n n ..#.#.:.7.<.#.,.;.b b @.b @ r.r.r.r.r.r.r.r.r.r.r.",
"r.r.r.r.r.r.8 y Z Z ( 2.1.1.8.<.#.,.6.7.1.,.4.) v &.@.c = 8 , r.r.r.r.r.r.r.r.r.",
"r.r.r.r.r.u -.o.b X.9.8.7.7.8.1.<.9.7.7.7.0.7.q.5.<.4.` ) 9.x   r.r.r.r.r.r.r.r.",
"r.r.r.r.O 8 -.e.e.8.7.7.7.7.7.7.0.7.7.7.7.7.7.7.7.7.7.8.w.2.i ; 7 ; r.r.r.r.r.r.",
"r.r.r.; 7 s ) <.1.7.7.7.7.7.7.7.0.7.7.7.7.7.7.7.7.7.7.7.7.3.m | %.7 . r.r.r.r.r.",
"r.r.r.6  ...m | &.3.7.7.7.7.7.7.7.7.7.7.7.7.7.7.7.7.7.7.7.3.,.5.o., 6 a ; r.r.r.",
"r.r.r.& b @.1.6.<.6.8.7.7.7.7.7.7.7.7.7.7.7.7.7.7.7.7.7.7.1.5.7.Z c &.&.6 r.r.r.",
"r.r.; b b d ..6.7.:.,.6.7.7.7.7.7.7.7.7.7.7.7.7.7.7.7.7.7.7.7.;._ 4.q.%.; r.r.r.",
"r.r.; ..@.C | &.&.#.<.7.7.7.7.7.7.9.7.7.7.7.7.7.7.7.7.7.7.7.9.3.0.7.7.d # + r.r.",
"r.r.r.a ] #.<.,.&.<.7.7.7.7.7.7.7.7.7.7.7.7.7.7.7.7.7.7.7.7.7.7.8.7.&.C ` ` - r.",
"r.r.; N @.1.9.;.&.3.8.7.7.7.7.7.7.7.7.7.7.7.7.7.7.7.7.7.7.7.7.7.7.7.1.#.;.q.: r.",
"r.@ & ] #.#.#.@.O.;.6.7.7.7.7.7.7.7.7.7.7.7.7.7.7.7.7.7.1.,.8.7.7.7.8.1.@.u # r.",
"& B V y ' 1.<.&.<.<.<.6.7.7.7.7.7.7.7.7.7.7.7.7.7.7.7.<.>.7.7.7.7.7.8.7.1.( Z & ",
"- ] %.:.3.3.:.1.7.7.7.7.7.7.7.7.7.7.7.7.7.7.7.7.7.7.7.>.#.<.8.7.7.7.;.3.8.&.#.& ",
"r.> ( %.6.7.7.7.7.7.7.7.7.7.7.7.7.7.7.7.7.7.6.1.:.<.@.@.O.#.3.8.7.&.@.#.#.O.6 r.",
"% = ( @.%.3.7.7.7.7.7.7.7.<.>.7.7.7.7.7.7.7.7.7.:.@.;.:.O.@.@.@.@.@.@.1.@., r.r.",
"; _ a ( 6.7.7.7.7.7.7.7.7.<.%.O.;.6.7.7.7.7.7.7.7.7.7.7.:.O.@.1.6.&.@.3.6.: % r.",
"= U  .#.6.1.&.3.7.7.7.7.<.#.:.,.,.7.7.7.7.7.7.7.7.6.>.@.@.@.#.2.8.6.&.3.7.7.5.= ",
"r.= Z @.1.%.O.&.3.7.7.<.%.&.3.7.7.7.7.7.7.7.7.7.7.7.7.,.@.:.*.@.1.6.#.@.3.0.2.= ",
"r.- : ] @.O.%.6.8.7.7.7.<.@.&.6.7.7.7.7.7.0.7.7.7.7.7.7.q.5.&.@.#.O.@.O.@.-.= r.",
"& T  .] O.X.&.3.7.7.<.%.O.O.,.6.7.:.;.0.7.6.3.3.6.7.7.7.7.>.&.3.3.&.O.@.@.& r.r.",
"% l l 9 Q %.3.8.7.6.7.1.#.;.7.7.,.O.&.6.7.<.O.#.,.7.7.7.7.7.8.3.#.O.@.@.Q - r.r.",
"r.@ % ! O.#.7.7.<.&.<.:.#.&.1.:.%.&.%.&.6.7.1.,.8.7.6.7.7.3.7.;.@.@.O.Q 6 1 r.r.",
"r.r.- ' #.#.<.,.#.O.O. .O.O. .%.<.7.,.O.&.1.:.&.1.;.;.3.>.;.7.7.&.@...9 T W - r.",
"r.r.p ] } } ..O.@.O.@.@.O...O.&.1.&.@.O.O.O.O.@.O.O.@.&.;.@.:.1.O.O.@.$.^ G = r.",
"r.- T [ W / O.@.} } O.O.{ { O.@.O.O.O.O.@.@. .O.@.@.@.O.O.O.O. .[ { @.Z z & r.r.",
"r.= k E / O.@.{ ! ~ O.} [  .@. ...@.@.@.@.@.@.O.} }  .#. ./ [ @.@.! M = X r.r.r.",
"r.r.% 4 p ! / W ~  . .~ T ^ ~ [  .O. .} O.} } @. .~ ^ } O.~ E / ~ ! k t - r.r.r.",
"r.r.$ % q Y E R T ~ ^ W W W T [ O. .! [ @. .[ } @.{ E ^ ~ ! E K J P I L < r.r.r.",
"r.r.r.< D D f G W W R R E ^ W ^ ~ ^ T ^ } @.} W / ~ T Y H Y E H 2 A 2 1 - r.r.r.",
"r.r.r.- 1 1 g T E F t F E R R E W E W W W ~ ! E Y I W R J L J D A 2 & r.r.r.r.r.",
"r.r.r.r.r.< S P S 5 h T Y I T Y Y E R I E Y K E E Y R W J w g L D 1 r.r.r.r.r.r.",
"r.r.r.r.r.r.< < 2 A t r F E R K E Y L H Y E R R Y w q P H A 1 < < - r.r.r.r.r.r.",
"r.r.r.r.r.r.r.r.& - 2 A L r q S H H w e D H t q H A 0 - w D 2 X r.r.r.r.r.r.r.r.",
"r.r.r.r.r.r.r.r.r.r.0 D w 0 A D D t < & 0 w * 3 q D e $ & - & r.r.r.r.r.r.r.r.r.",
"r.r.r.r.r.r.r.r.r.r.& & % 2 D q - & r.% & & r.r.= - & r.r.r.r.r.r.r.r.r.r.r.r.r.",
"r.r.r.r.r.r.r.r.r.r.r.r.r.& & = r.r.r.r.r.r.r.r.r.r.r.r.r.r.r.r.r.r.r.r.r.r.r.r."
};
