/* XPM */
static char *_29573c9a519497ea1fc526e1aa6e5caQULauktUnxGUmTrB[] = {
/* columns rows colors chars-per-pixel */
"20 20 56 1 ",
"  c #359E2F",
". c #37A230",
"X c #38A332",
"o c #39A433",
"O c #3CA137",
"+ c #3AA534",
"@ c #3CA635",
"# c #3EA837",
"$ c #3EA53A",
"% c #3EA938",
"& c #40A13D",
"* c #40A83A",
"= c #42AA3C",
"- c #46AF3F",
"; c #42B03A",
": c #44B73A",
"> c #46B03F",
", c #48B73E",
"< c #47BA3D",
"1 c #49BA3F",
"2 c #49BC3F",
"3 c #33984B",
"4 c #359B4A",
"5 c #3CA348",
"6 c #3DA44B",
"7 c #44AC4B",
"8 c #47B040",
"9 c #48B241",
"0 c #4AB542",
"q c #4AB345",
"w c #4DB346",
"e c #4CB544",
"r c #4BB940",
"t c #4CBB42",
"y c #4BBE41",
"u c #4CBE42",
"i c #4FB846",
"p c #4FBD45",
"a c #4FB948",
"s c #50BB47",
"d c #50BD46",
"f c #50BA48",
"g c #53BF48",
"h c #54BE4A",
"j c #4DC043",
"k c #4FC045",
"l c #52C047",
"z c #53C049",
"x c #54C349",
"c c #53C449",
"v c #54C449",
"b c #57C34D",
"n c #57C44C",
"m c #58C34D",
"M c #5AC54F",
"N c #58C84D",
/* pixels */
"MgMMM,rt,MMMMxMMvMMM",
",tlyvdx:pMMrbdtMlllM",
"tdXclluk1ytpxppkl.iM",
"rguczkkuX9ptmxxvk++M",
"gd<yuMMg>@MMbpdgx;.d",
"MdoodmtptMmpp+lufgxd",
"pt@izzzvvdddf.opffgt",
"ppiddvN%kzdMNclnfff0",
"dgfsfvN.0xx.kvkxx1u<",
"zghxxvvupMgXplMhgyz1",
"fhxxlvlggd<y2Mxxguvi",
"dhhMuvuxizlcuzxidkne",
"ig1ovlhx#zyclxx0iobe",
"sgk#lyhxxxsXlllje*xt",
"isu21gggxxd@lcvl@@pd",
"i9ghhxgsgmx.>kllxsig",
"0=e 0r89efghgxk+xdgx",
"i&37O333*99iaq+Xgifh",
"fi$896*-$33435sge9eh",
"ffese9ifi9*90es00wef"
};
